<?xml version="1.0" standalone="no"?>
<!DOCTYPE svg PUBLIC "-//W3C//DTD SVG 20010904//EN"
 "http://www.w3.org/TR/2001/REC-SVG-20010904/DTD/svg10.dtd">
<svg version="1.0" xmlns="http://www.w3.org/2000/svg"
 width="512.000000pt" height="512.000000pt" viewBox="0 0 512.000000 512.000000"
 preserveAspectRatio="xMidYMid meet">

<g transform="translate(0.000000,512.000000) scale(0.100000,-0.100000)"
fill="#000000" stroke="none">
<path d="M1473 5106 c-88 -28 -166 -97 -206 -184 l-22 -47 0 -1070 0 -1070 23
-49 c12 -27 22 -50 22 -52 0 -2 -236 -4 -523 -4 l-524 0 -61 -30 c-69 -35
-125 -92 -156 -159 l-21 -46 0 -1075 0 -1075 26 -55 c33 -70 89 -126 159 -159
l55 -26 1075 0 1075 0 46 22 c25 11 62 35 83 53 l36 32 36 -32 c21 -18 58 -42
83 -53 l46 -22 1075 0 1075 0 55 26 c70 33 126 89 159 159 l26 55 0 1075 0
1075 -28 57 c-33 66 -89 121 -161 154 l-51 24 -522 0 c-288 0 -523 2 -523 4 0
2 10 25 23 52 l22 49 0 1070 0 1070 -28 56 c-32 66 -99 132 -165 162 l-47 22
-1060 2 c-852 1 -1068 -1 -1102 -11z m2164 -160 c18 -11 42 -34 55 -50 l23
-31 2 -1052 c2 -579 0 -1053 -2 -1053 -3 0 -10 10 -15 23 -5 12 -9 15 -9 7 0
-8 3 -21 8 -29 7 -10 4 -19 -7 -29 -9 -7 -11 -10 -3 -6 9 4 12 3 7 -4 -3 -6
-20 -9 -37 -7 -30 4 -31 3 -15 -14 18 -19 8 -35 -24 -43 -8 -2 -17 -6 -20 -10
-3 -4 -62 -8 -130 -9 l-125 -1 -21 -31 c-24 -36 -18 -71 18 -104 19 -17 59
-18 772 -23 l751 -5 32 -23 c17 -12 41 -42 52 -65 21 -43 21 -49 21 -1068 0
-975 -1 -1026 -19 -1065 -22 -47 -59 -80 -110 -94 -24 -8 -367 -10 -1062 -8
l-1025 3 -37 25 c-20 13 -45 41 -56 61 -21 36 -21 46 -21 1073 0 1013 0 1038
20 1076 11 21 34 49 52 62 31 21 45 23 204 28 187 5 195 8 214 65 9 28 8 38
-4 58 -9 13 -13 26 -10 30 4 3 -353 6 -792 7 -439 0 -801 4 -804 8 -3 4 -12 8
-20 10 -8 2 -21 9 -28 15 -12 9 -10 14 8 29 21 17 21 17 -17 15 -26 -1 -37 2
-35 11 1 6 -3 12 -8 12 -7 0 -7 7 0 21 6 11 9 25 6 32 -2 7 -5 5 -5 -5 -1 -9
-5 -20 -11 -23 -6 -4 -10 357 -10 1035 0 926 2 1045 16 1072 8 16 18 27 22 24
3 -4 0 -12 -6 -18 -15 -15 -16 -45 -2 -53 7 -4 9 2 4 19 -7 28 2 35 51 40 20
2 29 9 32 25 1 11 -2 21 -8 21 -5 0 -7 -4 -4 -10 3 -5 1 -10 -4 -10 -6 0 -11
5 -11 10 0 6 -5 10 -11 10 -8 0 -8 -4 0 -14 18 -21 -7 -33 -25 -12 -8 9 -12
14 -8 12 3 -3 14 4 25 15 11 11 24 17 29 14 6 -4 10 -2 10 4 0 5 10 12 23 14
12 2 483 4 1047 3 995 -1 1026 -2 1057 -20z m-1236 -2489 c18 -12 44 -38 56
-56 l23 -34 0 -1044 c0 -1171 5 -1089 -73 -1141 l-41 -27 -1030 -3 c-925 -2
-1035 -1 -1073 13 -50 19 -88 61 -103 113 -8 26 -10 353 -8 1063 l3 1025 26
40 c52 79 -31 74 1140 74 l1046 0 34 -23z"/>
<path d="M1541 4918 c0 -28 2 -30 9 -13 12 28 12 45 0 45 -5 0 -10 -15 -9 -32z"/>
<path d="M1552 4860 c0 -14 2 -19 5 -12 2 6 2 18 0 25 -3 6 -5 1 -5 -13z"/>
<path d="M1540 4046 c0 -504 3 -766 10 -766 7 0 10 260 10 759 0 496 -3 762
-10 766 -7 4 -10 -252 -10 -759z"/>
<path d="M1417 4793 c-12 -11 -8 -1903 3 -1903 7 0 10 325 10 955 0 525 -1
955 -3 955 -2 0 -7 -3 -10 -7z"/>
<path d="M2503 4470 c-12 -5 -29 -23 -38 -39 -34 -66 -455 -1188 -455 -1212 0
-38 29 -70 66 -71 54 -2 70 16 110 119 20 54 43 113 50 131 l13 32 303 0 303
0 50 -127 c56 -143 82 -172 131 -156 17 5 37 24 47 44 l19 34 -122 320 c-67
176 -149 392 -182 480 -135 364 -150 400 -179 428 -31 28 -72 34 -116 17z
m174 -564 c62 -165 113 -303 113 -308 0 -4 -108 -8 -241 -8 -226 0 -241 1
-234 18 3 9 56 148 117 307 61 160 113 297 116 304 5 13 6 13 10 1 3 -8 56
-150 119 -314z"/>
<path d="M1521 3244 c1 -21 5 -52 9 -69 5 -19 6 -6 3 35 -6 73 -14 94 -12 34z"/>
<path d="M1551 3138 c0 -7 4 -22 9 -33 8 -18 9 -17 9 7 1 15 -3 30 -9 33 -5 3
-10 0 -9 -7z"/>
<path d="M1532 3065 c0 -16 2 -22 5 -12 2 9 2 23 0 30 -3 6 -5 -1 -5 -18z"/>
<path d="M1570 3056 c0 -9 5 -16 10 -16 6 0 10 4 10 9 0 6 -4 13 -10 16 -5 3
-10 -1 -10 -9z"/>
<path d="M1600 3014 c0 -5 11 -25 25 -44 14 -19 25 -31 25 -26 0 4 -11 24 -25
44 -14 20 -25 32 -25 26z"/>
<path d="M1601 2954 c0 -11 3 -14 6 -6 3 7 2 16 -1 19 -3 4 -6 -2 -5 -13z"/>
<path d="M1659 2882 c26 -9 53 -44 48 -63 -3 -11 0 -19 8 -19 18 0 27 30 14
46 -6 8 -9 20 -6 27 3 9 -7 13 -37 13 -22 1 -35 -1 -27 -4z"/>
<path d="M1793 2833 c10 -3 16 -10 14 -16 -3 -8 12 -12 47 -13 l50 -1 -49 18
c-28 10 -57 17 -65 17 -9 0 -8 -2 3 -5z"/>
<path d="M3240 2710 c0 -5 5 -10 10 -10 6 0 10 5 10 10 0 6 -4 10 -10 10 -5 0
-10 -4 -10 -10z"/>
<path d="M1482 2691 c-10 -6 -5 -11 19 -20 17 -6 36 -11 40 -11 16 0 9 18 -8
24 -10 3 -22 8 -28 11 -5 3 -16 1 -23 -4z"/>
<path d="M3065 2690 c-5 -9 6 -15 62 -35 7 -2 10 -12 7 -22 -5 -15 -4 -16 5
-3 9 12 11 11 12 -10 1 -17 3 -20 6 -7 2 9 9 15 14 12 5 -4 9 -1 9 4 0 6 -5
11 -11 11 -6 0 -20 11 -31 25 -11 14 -24 23 -29 20 -5 -4 -9 -1 -9 4 0 14 -27
14 -35 1z"/>
<path d="M3593 2690 c-33 -13 -29 -32 5 -24 36 9 43 14 37 25 -7 11 -13 11
-42 -1z"/>
<path d="M3304 2631 c3 -5 -3 -20 -14 -34 -17 -22 -18 -26 -4 -31 8 -3 13 -2
10 3 -3 5 3 20 14 34 17 22 18 26 4 31 -8 3 -13 2 -10 -3z"/>
<path d="M3170 2603 c0 -4 5 -15 10 -23 8 -13 10 -13 10 2 0 9 -4 20 -10 23
-5 3 -10 3 -10 -2z"/>
<path d="M3755 1914 c-239 -37 -451 -222 -519 -452 -82 -282 59 -600 324 -731
176 -86 352 -92 518 -16 68 31 160 108 177 149 23 54 -14 106 -75 106 -11 0
-45 -23 -76 -51 -31 -28 -77 -60 -101 -71 -154 -68 -364 -24 -492 103 -98 97
-141 201 -141 339 0 188 98 345 266 426 137 66 278 63 427 -8 84 -40 90 -41
115 -27 40 22 56 62 40 96 -39 81 -308 161 -463 137z"/>
<path d="M1014 1897 l-29 -25 -3 -577 -2 -576 30 -30 30 -31 238 4 c217 4 242
6 294 27 80 31 159 106 200 189 30 60 33 75 33 157 0 80 -4 97 -31 155 -31 64
-81 124 -130 157 l-25 16 20 21 c67 72 90 243 43 337 -36 74 -87 125 -160 161
l-67 33 -206 3 -206 4 -29 -25z m451 -155 c128 -73 122 -253 -9 -313 -33 -15
-66 -19 -178 -19 l-138 0 0 181 0 181 143 -4 c126 -3 146 -6 182 -26z m26
-492 c108 -30 180 -139 164 -247 -9 -62 -60 -132 -119 -162 -45 -23 -61 -25
-222 -29 l-174 -5 0 227 0 226 158 0 c86 0 173 -5 193 -10z"/>
</g>
</svg>
