<?xml version="1.0" standalone="no"?>
<!DOCTYPE svg PUBLIC "-//W3C//DTD SVG 20010904//EN"
 "http://www.w3.org/TR/2001/REC-SVG-20010904/DTD/svg10.dtd">
<svg version="1.0" xmlns="http://www.w3.org/2000/svg"
 width="512.000000pt" height="512.000000pt" viewBox="0 0 512.000000 512.000000"
 preserveAspectRatio="xMidYMid meet">

<g transform="translate(0.000000,512.000000) scale(0.100000,-0.100000)"
fill="#000000" stroke="none">
<path d="M1876 5105 c-100 -26 -185 -74 -262 -150 -93 -91 -118 -144 -193
-400 -59 -201 -69 -257 -53 -281 21 -32 91 -45 112 -20 6 8 19 12 28 9 12 -3
13 -2 5 4 -9 7 -5 32 17 108 16 55 40 136 52 180 12 44 24 82 27 85 4 3 6 11
7 18 3 34 4 37 15 22 8 -12 9 -11 4 6 -7 25 3 56 16 48 5 -3 6 3 2 12 -4 12
-3 15 5 10 8 -5 10 -2 6 8 -9 23 109 134 175 164 59 26 202 42 238 27 10 -5
22 -7 27 -6 5 1 37 -7 72 -19 35 -11 71 -20 81 -20 14 0 15 -2 4 -9 -7 -5 -23
-7 -35 -5 -20 4 -20 4 -1 -4 11 -5 30 -6 41 -1 23 8 456 -110 448 -123 -2 -3
6 -4 18 0 13 3 19 1 15 -5 -5 -7 1 -9 15 -5 14 3 19 1 14 -6 -4 -8 -2 -10 8
-6 15 6 155 -32 170 -46 5 -5 15 -6 24 -3 10 4 13 2 8 -5 -4 -7 -2 -10 6 -7
20 7 73 -11 71 -24 -2 -6 1 -11 5 -11 16 0 62 -99 80 -170 14 -57 16 -90 10
-158 -4 -48 -12 -98 -17 -112 -10 -27 -15 -44 -86 -295 -26 -88 -50 -173 -55
-190 -20 -63 -90 -303 -109 -375 -48 -179 -94 -320 -124 -380 -30 -61 -143
-190 -166 -190 -6 0 -27 -11 -47 -25 -40 -27 -73 -28 -153 -4 -29 8 -38 15
-29 21 7 4 -2 5 -21 1 -26 -5 -32 -3 -26 7 6 9 2 10 -15 5 -12 -4 -20 -3 -17
1 3 5 -11 10 -31 11 -20 1 -38 7 -40 13 -2 5 -8 8 -13 5 -10 -7 -122 26 -127
37 -2 4 -10 4 -19 1 -9 -4 -14 -2 -10 3 3 6 -8 10 -26 11 -46 1 -110 30 -101
44 4 8 3 9 -5 5 -6 -4 -9 -11 -6 -16 3 -4 -4 -6 -16 -3 -16 5 -18 8 -7 15 9 6
6 7 -9 3 -31 -8 -79 5 -61 17 9 7 5 8 -13 4 -14 -3 -29 -3 -33 1 -3 4 -14 7
-24 8 -41 4 -82 17 -77 26 4 5 0 6 -8 3 -19 -7 -169 42 -200 66 -14 11 -29 20
-35 20 -14 0 -43 36 -35 43 10 10 25 8 19 -2 -3 -5 1 -14 8 -20 10 -9 16 -9
21 -1 4 6 1 9 -6 8 -7 -2 -13 2 -14 9 0 21 -14 26 -31 12 -14 -11 -19 -10 -35
10 -10 13 -16 28 -12 34 3 5 1 7 -5 4 -14 -10 -54 75 -46 99 4 15 4 16 -4 5
-16 -22 -36 93 -28 164 6 66 39 179 48 169 4 -3 4 4 1 17 -4 15 -3 20 5 15 7
-4 10 -2 7 6 -3 7 6 54 20 103 14 50 32 113 40 140 8 28 19 64 24 82 8 27 6
37 -10 58 -11 13 -18 29 -15 33 10 17 -86 -5 -104 -24 -24 -25 -159 -484 -169
-578 -22 -195 57 -379 214 -501 29 -23 76 -52 104 -64 29 -12 329 -103 669
-202 542 -159 628 -181 709 -186 244 -15 466 129 550 357 30 80 352 1192 370
1275 48 227 -83 487 -298 592 -36 17 -335 109 -693 213 -559 162 -640 183
-715 186 -54 2 -108 -2 -145 -11z"/>
<path d="M1825 4911 c-14 -6 -7 -8 25 -8 32 0 39 2 25 8 -11 4 -22 8 -25 8 -3
0 -14 -4 -25 -8z"/>
<path d="M1741 4827 c-13 -21 -12 -21 5 -5 10 10 16 20 13 22 -3 3 -11 -5 -18
-17z"/>
<path d="M2680 4750 c34 -11 60 -11 35 0 -11 5 -29 8 -40 8 -16 0 -15 -2 5 -8z"/>
<path d="M2950 4670 c-9 -6 -10 -10 -3 -10 6 0 15 5 18 10 8 12 4 12 -15 0z"/>
<path d="M2988 4663 c7 -3 16 -2 19 1 4 3 -2 6 -13 5 -11 0 -14 -3 -6 -6z"/>
<path d="M1576 4397 c3 -10 9 -15 12 -12 3 3 0 11 -7 18 -10 9 -11 8 -5 -6z"/>
<path d="M2670 4286 c0 -2 8 -10 18 -17 15 -13 16 -12 3 4 -13 16 -21 21 -21
13z"/>
<path d="M2560 4265 c-14 -8 -32 -12 -42 -9 -9 3 -19 0 -23 -5 -4 -7 1 -9 12
-5 10 3 7 -1 -7 -9 -14 -9 -28 -13 -32 -11 -5 3 -8 1 -8 -5 0 -6 -18 -20 -40
-31 -21 -11 -45 -30 -51 -42 -15 -28 -14 -75 2 -94 13 -16 79 -19 79 -4 0 6 4
10 9 10 14 0 -18 -114 -37 -127 -9 -7 -11 -13 -5 -13 13 0 -25 -153 -39 -158
-4 -2 -6 -7 -3 -12 3 -4 -6 -41 -19 -81 -13 -41 -27 -91 -31 -111 -4 -21 -11
-38 -16 -38 -5 0 -5 -7 -2 -17 5 -12 3 -14 -7 -8 -10 6 -12 4 -7 -7 7 -20 -13
-99 -24 -92 -10 6 -1 -52 12 -78 6 -11 5 -18 -4 -21 -6 -2 -1 -4 13 -4 14 0
43 -3 65 -7 75 -14 68 -30 213 482 15 50 30 92 35 92 5 0 6 -8 2 -17 -5 -14
-4 -15 6 -6 9 9 9 16 1 26 -9 11 -6 33 14 98 14 46 28 96 31 112 3 15 10 27
15 27 5 0 6 4 3 10 -3 5 0 20 6 32 18 33 14 95 -6 118 -22 24 -78 26 -115 5z"/>
<path d="M2358 4213 c7 -3 16 -2 19 1 4 3 -2 6 -13 5 -11 0 -14 -3 -6 -6z"/>
<path d="M2341 4157 c-8 -10 -7 -14 2 -14 8 0 14 6 14 14 0 7 -1 13 -2 13 -2
0 -8 -6 -14 -13z"/>
<path d="M2335 4119 c-4 -6 -5 -12 -2 -15 2 -3 7 2 10 11 7 17 1 20 -8 4z"/>
<path d="M1367 4081 c-4 -17 -3 -21 5 -13 5 5 8 16 6 23 -3 8 -7 3 -11 -10z"/>
<path d="M2326 4077 c3 -10 9 -15 12 -12 3 3 0 11 -7 18 -10 9 -11 8 -5 -6z"/>
<path d="M1412 3920 c0 -14 2 -19 5 -12 2 6 2 18 0 25 -3 6 -5 1 -5 -13z"/>
<path d="M2381 3824 c0 -11 3 -14 6 -6 3 7 2 16 -1 19 -3 4 -6 -2 -5 -13z"/>
<path d="M1341 3634 c0 -11 3 -14 6 -6 3 7 2 16 -1 19 -3 4 -6 -2 -5 -13z"/>
<path d="M2466 3293 c-6 -14 -5 -15 5 -6 7 7 10 15 7 18 -3 3 -9 -2 -12 -12z"/>
<path d="M1628 3003 c7 -3 16 -2 19 1 4 3 -2 6 -13 5 -11 0 -14 -3 -6 -6z"/>
<path d="M2188 2833 c7 -3 16 -2 19 1 4 3 -2 6 -13 5 -11 0 -14 -3 -6 -6z"/>
<path d="M1750 2514 c-14 -3 -304 -50 -644 -105 -374 -61 -641 -109 -675 -121
-118 -44 -222 -131 -285 -238 -85 -145 -93 -250 -41 -565 20 -121 42 -230 51
-242 18 -28 51 -37 87 -24 50 19 51 44 12 281 -19 120 -35 240 -35 267 0 110
54 231 135 302 82 72 130 86 525 150 378 62 842 135 920 146 144 18 316 -76
387 -213 36 -67 37 -73 69 -264 117 -716 174 -1088 174 -1141 0 -169 -114
-324 -276 -375 -58 -18 -1129 -197 -1294 -216 -188 -22 -380 108 -429 290 -6
23 -29 151 -51 285 -44 266 -51 282 -110 282 -44 0 -73 -31 -72 -79 1 -67 81
-522 101 -574 66 -173 205 -294 392 -341 65 -17 100 -20 159 -16 127 11 1308
206 1366 227 84 29 143 67 209 134 104 106 158 238 157 381 0 74 -186 1266
-213 1370 -19 71 -81 175 -140 235 -101 103 -226 159 -369 165 -47 2 -96 1
-110 -1z"/>
<path d="M3138 2454 c-191 -46 -349 -201 -405 -395 -20 -70 -31 -504 -14 -565
11 -41 40 -64 80 -64 13 0 44 21 63 43 1 1 4 124 7 272 l6 270 32 67 c57 121
163 203 293 228 69 13 1284 13 1364 0 112 -18 222 -94 279 -191 58 -98 58
-105 55 -846 l-3 -678 -32 -67 c-42 -90 -110 -160 -192 -201 -65 -32 -67 -32
-261 -39 -290 -9 -1105 -9 -1182 1 -166 22 -296 131 -344 290 -10 34 -14 113
-14 314 0 215 -3 274 -15 296 -36 70 -125 48 -141 -35 -3 -19 -4 -153 -2 -297
5 -230 8 -270 26 -327 61 -186 213 -333 398 -382 38 -10 211 -13 759 -13 l710
0 67 26 c191 74 315 207 363 389 23 85 22 1416 -1 1503 -25 99 -70 176 -148
253 -78 78 -177 133 -274 153 -85 18 -1400 13 -1474 -5z"/>
<path d="M3752 1802 c-112 -40 -194 -173 -161 -260 13 -35 26 -42 74 -42 56 0
81 20 89 73 11 69 42 92 127 92 62 0 71 -3 96 -28 25 -25 28 -34 28 -96 0 -94
-20 -122 -101 -138 -63 -12 -84 -31 -84 -73 0 -43 25 -67 77 -74 71 -10 97
-23 118 -59 22 -36 25 -142 6 -189 -17 -45 -66 -68 -142 -68 -89 0 -129 26
-146 94 -16 63 -21 68 -81 74 -42 4 -53 1 -72 -18 -45 -45 -7 -166 71 -234 59
-50 126 -71 229 -71 141 1 242 51 290 145 68 134 35 335 -64 387 l-28 15 25
26 c68 71 92 228 50 323 -44 97 -104 130 -248 135 -80 4 -110 1 -153 -14z"/>
<path d="M1195 1760 c-64 -14 -112 -38 -156 -77 -50 -45 -76 -95 -83 -159 -13
-115 51 -169 138 -118 14 9 21 28 27 73 8 69 26 96 76 117 71 30 146 4 177
-60 38 -80 5 -154 -138 -304 -203 -214 -223 -256 -195 -421 14 -82 30 -101 83
-101 75 1 506 76 521 91 26 26 29 72 5 102 -27 35 -46 34 -265 -2 -93 -16
-173 -27 -177 -24 -17 9 -7 75 16 111 13 20 59 71 101 112 203 198 259 321
216 473 -18 63 -86 138 -150 165 -57 25 -140 34 -196 22z"/>
</g>
</svg>
