<?xml version="1.0" standalone="no"?>
<!DOCTYPE svg PUBLIC "-//W3C//DTD SVG 20010904//EN"
 "http://www.w3.org/TR/2001/REC-SVG-20010904/DTD/svg10.dtd">
<svg version="1.0" xmlns="http://www.w3.org/2000/svg"
 width="512.000000pt" height="512.000000pt" viewBox="0 0 512.000000 512.000000"
 preserveAspectRatio="xMidYMid meet">

<g transform="translate(0.000000,512.000000) scale(0.100000,-0.100000)"
fill="#000000" stroke="none">
<path d="M2361 4784 c-169 -45 -301 -180 -346 -351 -13 -48 -15 -160 -15 -680
l0 -623 -817 -2 -818 -3 -58 -23 c-126 -51 -232 -161 -280 -289 -18 -50 -22
-85 -25 -245 l-4 -187 26 -26 c30 -30 64 -32 99 -5 25 19 25 21 29 197 3 166
5 182 30 234 35 76 88 133 156 166 l57 28 1160 0 1160 0 67 -33 c78 -38 137
-104 165 -185 17 -48 18 -103 18 -787 l0 -735 -29 -63 c-19 -41 -47 -79 -81
-110 -94 -86 -49 -82 -897 -82 -496 0 -756 -4 -775 -10 -15 -6 -112 -95 -216
-198 l-187 -187 0 167 c0 162 -1 168 -24 195 l-24 28 -174 6 c-128 4 -182 10
-209 22 -63 28 -133 101 -165 169 l-29 63 -3 427 -3 427 -27 22 c-32 25 -78
20 -104 -12 -17 -19 -18 -56 -18 -438 0 -459 2 -481 62 -593 36 -68 128 -158
199 -193 71 -37 161 -55 272 -55 l97 0 0 -230 c0 -217 1 -231 20 -250 12 -12
33 -20 53 -20 29 0 58 26 282 250 l250 250 725 0 c784 0 793 1 899 55 71 35
163 125 199 193 62 116 62 114 62 799 l0 623 378 0 379 0 239 -240 c131 -133
251 -248 266 -256 32 -16 69 -11 92 15 13 14 16 56 18 247 l3 229 130 6 c134
6 188 20 265 67 58 36 136 119 168 181 63 117 62 104 62 897 0 449 -4 742 -10
775 -25 131 -124 266 -239 328 -86 45 -159 61 -288 61 -102 0 -114 -2 -138
-22 -34 -30 -37 -81 -6 -111 19 -20 35 -23 159 -28 75 -3 145 -9 155 -13 17
-8 17 -52 15 -830 l-3 -821 -24 -38 c-32 -52 -87 -84 -166 -97 -106 -17 -155
-65 -155 -155 0 -38 -3 -45 -20 -45 -11 0 -28 -9 -38 -20 -14 -17 -18 -48 -22
-192 l-5 -171 -193 192 -193 191 -380 0 -379 0 -1 23 c-2 87 -32 187 -81 270
l-27 47 34 0 c19 0 35 5 35 11 0 5 6 7 13 3 6 -4 9 -4 5 1 -4 4 -2 15 5 23 10
13 16 201 17 545 l0 27 370 0 370 0 0 -273 c0 -223 3 -276 15 -293 8 -12 11
-25 7 -29 -4 -5 -1 -5 6 -1 6 4 12 2 12 -3 0 -6 17 -11 38 -11 27 0 45 7 60
23 22 23 22 25 22 468 0 489 -2 509 -61 620 -17 32 -56 84 -87 115 -32 32 -56
62 -54 67 1 5 -2 6 -7 3 -6 -4 -35 9 -65 29 -31 19 -59 35 -63 35 -5 0 -38 6
-75 15 -85 19 -156 19 -238 -1 -36 -9 -70 -17 -75 -18 -6 -1 -32 -14 -58 -29
-26 -16 -52 -25 -57 -22 -6 4 -9 3 -8 -2 2 -5 -18 -30 -44 -56 -26 -25 -60
-64 -76 -86 -16 -22 -31 -38 -34 -36 -2 2 -4 -4 -5 -13 -1 -9 -13 -48 -27 -87
l-25 -70 -1 -448 0 -449 -40 35 c-59 50 -145 93 -223 111 -53 13 -128 16 -343
16 l-274 0 0 548 c0 301 4 575 9 609 13 84 45 146 108 203 92 85 34 80 1002
80 537 0 869 4 892 10 62 17 76 83 29 130 -20 20 -37 20 -897 19 -734 0 -887
-3 -932 -15z m1300 -590 c8 -4 23 -10 34 -11 57 -9 192 -130 180 -161 -3 -7
-1 -11 4 -7 20 11 51 -103 51 -185 l0 -80 -372 2 -373 3 4 80 c2 47 11 101 23
133 23 63 98 158 121 156 9 -1 14 2 12 7 -8 12 37 38 102 60 60 20 184 22 214
3z"/>
<path d="M3963 4227 c0 -8 6 -14 14 -14 9 0 10 4 2 14 -6 7 -12 13 -14 13 -1
0 -2 -6 -2 -13z"/>
<path d="M1433 2746 c-193 -47 -351 -211 -393 -406 -18 -87 -9 -530 13 -595
15 -44 54 -117 89 -167 11 -15 2 -28 -65 -96 -61 -64 -77 -86 -77 -110 0 -45
30 -76 74 -76 32 0 46 10 119 80 l82 80 55 -27 c298 -146 661 23 745 348 22
84 21 501 -1 587 -47 184 -195 331 -384 381 -66 18 -186 18 -257 1z m264 -168
c103 -38 181 -121 220 -232 15 -43 18 -86 18 -287 l0 -235 -38 -77 c-92 -186
-287 -261 -483 -187 l-27 11 45 47 c25 26 51 57 57 69 24 48 -14 103 -72 103
-21 0 -44 -15 -87 -56 -32 -31 -64 -53 -70 -49 -20 12 -58 101 -69 160 -14 74
-14 375 -1 445 15 81 53 154 107 206 107 105 257 136 400 82z"/>
</g>
</svg>
