<?xml version="1.0" standalone="no"?>
<!DOCTYPE svg PUBLIC "-//W3C//DTD SVG 20010904//EN"
 "http://www.w3.org/TR/2001/REC-SVG-20010904/DTD/svg10.dtd">
<svg version="1.0" xmlns="http://www.w3.org/2000/svg"
 width="512.000000pt" height="512.000000pt" viewBox="0 0 512.000000 512.000000"
 preserveAspectRatio="xMidYMid meet">

<g transform="translate(0.000000,512.000000) scale(0.100000,-0.100000)"
fill="#000000" stroke="none">
<path d="M340 4555 c-60 -19 -124 -75 -158 -139 l-27 -51 -3 -1487 c-2 -1420
-1 -1490 16 -1542 l18 -55 -39 -17 c-53 -24 -114 -96 -132 -157 -21 -69 -21
-305 0 -374 19 -63 77 -130 141 -163 l49 -25 543 -3 c383 -2 548 1 563 8 11 7
25 25 31 41 l10 29 98 0 c96 0 98 0 104 -25 15 -59 -100 -55 1707 -53 l1654 3
49 25 c64 33 122 100 141 163 21 69 21 305 0 374 -18 61 -79 133 -132 157
l-39 17 17 52 c17 48 18 104 19 704 0 464 -3 659 -11 677 -7 13 -25 30 -40 37
l-29 11 0 98 c0 96 0 98 25 104 58 15 56 -8 53 727 l-3 674 -27 50 c-31 60
-67 95 -128 127 l-45 23 -2190 2 c-1854 1 -2197 0 -2235 -12z m4170 -1695 l0
-1220 -1950 0 -1950 0 -2 939 c-3 907 -4 940 -22 960 -11 12 -27 21 -38 21
-16 0 -18 10 -18 103 l0 103 30 11 c42 16 50 46 50 184 l0 119 1950 0 1950 0
0 -1220z"/>
<path d="M1195 3575 l-25 -24 0 -270 c0 -181 4 -278 11 -295 7 -14 25 -30 42
-36 42 -14 2632 -14 2674 0 17 6 35 22 42 36 7 17 11 114 11 295 l0 270 -25
24 -24 25 -1341 0 -1341 0 -24 -25z m2603 -302 l2 -173 -1240 0 -1240 0 0 168
c0 93 3 172 7 175 3 4 560 6 1237 5 l1231 -3 3 -172z"/>
<path d="M2002 2737 c-21 -22 -22 -32 -22 -219 0 -182 1 -197 21 -222 l20 -26
539 0 539 0 20 26 c20 25 21 40 21 224 0 193 0 197 -23 218 l-23 22 -535 0
-536 0 -21 -23z m988 -222 l0 -95 -430 0 -430 0 0 95 0 95 430 0 430 0 0 -95z"/>
</g>
</svg>
