<?xml version="1.0" encoding="UTF-8"?>
<svg version="1.1" xmlns="http://www.w3.org/2000/svg" width="360" height="360">
<path d="M0 0 C118.8 0 237.6 0 360 0 C360 118.8 360 237.6 360 360 C241.2 360 122.4 360 0 360 C0 241.2 0 122.4 0 0 Z " fill="#FEFEFE" transform="translate(0,0)"/>
<path d="M0 0 C2.80580577 1.36612266 5.10770186 2.84103267 7.4609375 4.890625 C9.81200657 6.38675987 11.02881124 6.40512471 13.7734375 6.578125 C19.80974339 7.10345211 23.92908065 9.55875645 28.14453125 13.85546875 C32.51723796 19.22765128 38.5234375 28.16169404 38.5234375 35.203125 C37.5334375 35.698125 37.5334375 35.698125 36.5234375 36.203125 C36.44996094 37.92208984 36.44996094 37.92208984 36.375 39.67578125 C36.29990949 41.20575035 36.22436444 42.73569718 36.1484375 44.265625 C36.1175 45.01779297 36.0865625 45.76996094 36.0546875 46.54492188 C35.8641489 50.21278999 35.52977315 53.56098881 34.46484375 57.0859375 C33.25825757 61.08118968 33.68544464 63.52713927 35.5234375 67.203125 C36.03234186 73.30997729 35.6009836 76.33272272 31.5234375 81.203125 C28.86543827 83.61948794 28.17049417 84.203125 24.5234375 84.203125 C24.44996094 85.09064453 24.44996094 85.09064453 24.375 85.99609375 C23.95886883 90.39416972 23.47378155 94.17241397 21.5234375 98.203125 C26.51154671 100.45266445 31.44742949 102.16424587 36.7109375 103.640625 C43.71296302 105.65677243 50.64503023 107.79290143 57.5234375 110.203125 C58.60367188 110.55890625 59.68390625 110.9146875 60.796875 111.28125 C69.43582764 114.30186281 78.164277 118.42291377 82.8984375 126.703125 C87.90605189 138.95431184 89.49312412 152.48707789 91.58642578 165.45214844 C93.63154513 178.08924883 96.0287764 190.64800102 98.5234375 203.203125 C99.13340576 202.5726123 99.74337402 201.94209961 100.37182617 201.29248047 C102.5234375 199.203125 102.5234375 199.203125 104.94921875 197.7734375 C108.02048809 195.89991659 110.21768122 193.66567993 112.7109375 191.078125 C118.3330731 185.26212265 118.3330731 185.26212265 122.203125 185.0703125 C123.78480469 185.07417969 123.78480469 185.07417969 125.3984375 185.078125 C126.44773437 185.07554687 127.49703125 185.07296875 128.578125 185.0703125 C131.5234375 185.203125 131.5234375 185.203125 133.47216797 185.69604492 C136.84829616 186.5306341 140.3116871 186.49640065 143.7734375 186.640625 C150.02273986 186.95356911 156.24257931 187.37477242 162.4609375 188.078125 C163.74871094 188.21992188 165.03648437 188.36171875 166.36328125 188.5078125 C169.5130064 189.2008299 170.63896127 189.65803902 172.5234375 192.203125 C167.45348414 192.50135755 163.32183032 191.98670232 158.3984375 190.703125 C148.58272133 188.29764752 139.19612527 188.33714344 129.5234375 191.203125 C128.2034375 191.203125 126.8834375 191.203125 125.5234375 191.203125 C125.5234375 190.543125 125.5234375 189.883125 125.5234375 189.203125 C126.8434375 188.873125 128.1634375 188.543125 129.5234375 188.203125 C124.73575235 187.3780133 121.02865147 187.2026135 116.87890625 189.9609375 C114.31683905 192.28293389 111.92537459 194.71697976 109.5234375 197.203125 C108.80285156 197.77546875 108.08226562 198.3478125 107.33984375 198.9375 C104.33781109 201.37778409 102.75997465 203.06937796 101.95703125 206.91796875 C101.67094727 214.08852535 103.14065525 220.85518794 106.5234375 227.203125 C108.5594395 229.46977756 108.5594395 229.46977756 110.5234375 231.203125 C111.14089844 230.18734375 111.75835937 229.1715625 112.39453125 228.125 C127.45884914 203.54889809 127.45884914 203.54889809 133.5234375 201.203125 C135.90498039 200.90675365 138.29934016 200.70778632 140.6953125 200.5703125 C141.3777301 200.52875031 142.06014771 200.48718811 142.76324463 200.44436646 C144.93291833 200.31410153 147.10305623 200.19594982 149.2734375 200.078125 C150.74874498 199.991685 152.22400636 199.90445421 153.69921875 199.81640625 C157.30682381 199.60132968 160.91480542 199.40266113 164.5234375 199.203125 C159.5734375 198.213125 154.6234375 197.223125 149.5234375 196.203125 C149.5234375 195.543125 149.5234375 194.883125 149.5234375 194.203125 C156.06785663 195.10137861 156.06785663 195.10137861 158.8671875 195.7265625 C166.81167641 197.15189728 174.85623089 196.60852315 182.5234375 194.203125 C182.1934375 193.543125 181.8634375 192.883125 181.5234375 192.203125 C179.62810408 191.73789437 179.62810408 191.73789437 177.4609375 191.578125 C175.511875 191.3925 175.511875 191.3925 173.5234375 191.203125 C173.5234375 190.873125 173.5234375 190.543125 173.5234375 190.203125 C178.4734375 189.213125 178.4734375 189.213125 183.5234375 188.203125 C179.5634375 188.533125 175.6034375 188.863125 171.5234375 189.203125 C171.8534375 188.543125 172.1834375 187.883125 172.5234375 187.203125 C178.7483361 185.20226474 185.04617887 184.99418117 191.5234375 185.203125 C191.925625 186.1621875 191.925625 186.1621875 192.3359375 187.140625 C193.41011502 189.53444186 193.41011502 189.53444186 196.5234375 190.203125 C196.1484375 192.640625 196.1484375 192.640625 195.5234375 195.203125 C193.13402124 196.39783313 191.10968919 196.62578122 188.4609375 197.015625 C184.24370872 197.66976624 180.22786912 198.55596157 176.12451172 199.72119141 C165.80183937 202.565219 155.49808386 202.68925679 144.85595703 202.61157227 C137.44526823 202.38621761 137.44526823 202.38621761 130.9296875 205.33984375 C128.4000595 208.34993681 125.9326738 211.33538423 123.7109375 214.578125 C123.31712891 215.11695313 122.92332031 215.65578125 122.51757812 216.2109375 C119.07453952 221.17174785 118.176272 225.5745862 118.9609375 231.515625 C118.25714701 237.44757345 114.41139942 240.86156753 110.5234375 245.203125 C109.79125 246.06679688 109.0590625 246.93046875 108.3046875 247.8203125 C100.2189221 257.18727312 89.35577657 267.36986815 76.33984375 268.37109375 C71.94086285 268.40921317 68.52819803 268.27009818 64.5234375 266.203125 C64.8534375 266.863125 65.1834375 267.523125 65.5234375 268.203125 C65.5234375 277.113125 65.5234375 286.023125 65.5234375 295.203125 C18.9934375 295.203125 -27.5365625 295.203125 -75.4765625 295.203125 C-76.1365625 280.353125 -76.7965625 265.503125 -77.4765625 250.203125 C-81.7665625 250.203125 -86.0565625 250.203125 -90.4765625 250.203125 C-97.59984169 248.01134679 -102.56297272 244.66156202 -106.4765625 238.203125 C-108.85087933 232.40402313 -110.05192627 227.03260897 -110.0234375 220.77734375 C-110.0201947 219.94216721 -110.0169519 219.10699066 -110.01361084 218.24650574 C-109.64452996 204.46786582 -106.6542702 190.81510316 -104.14697266 177.29852295 C-103.58634745 174.25423365 -103.0422059 171.20710188 -102.49845123 168.15976143 C-94.22650399 121.81935236 -94.22650399 121.81935236 -84.4765625 113.203125 C-74.46004799 106.52544866 -62.03810461 104.84537998 -50.4765625 102.203125 C-50.80140625 101.07003906 -51.12625 99.93695313 -51.4609375 98.76953125 C-52.94659271 92.06177172 -52.77535604 85.26966958 -52.73730469 78.43725586 C-52.72656962 76.14214763 -52.73725361 73.84781908 -52.75 71.55273438 C-52.74867847 70.0703108 -52.74611622 68.58788771 -52.7421875 67.10546875 C-52.74623596 66.43128403 -52.75028442 65.7570993 -52.75445557 65.06248474 C-52.72044738 61.55043277 -52.35172543 58.36540281 -51.46557617 54.984375 C-50.67842629 51.97490146 -50.24934887 49.84350537 -50.38671875 46.80078125 C-50.40895508 46.05981201 -50.43119141 45.31884277 -50.45410156 44.55541992 C-50.49615723 43.42197144 -50.49615723 43.42197144 -50.5390625 42.265625 C-50.70535354 32.78800266 -49.64211601 26.64431027 -43.4765625 19.203125 C-43.4765625 17.883125 -43.4765625 16.563125 -43.4765625 15.203125 C-44.1365625 15.203125 -44.7965625 15.203125 -45.4765625 15.203125 C-45.1465625 14.213125 -44.8165625 13.223125 -44.4765625 12.203125 C-43.2390625 11.97625 -42.0015625 11.749375 -40.7265625 11.515625 C-34.90460957 10.43679666 -30.53898101 7.38015451 -25.6875 4.17578125 C-17.64725972 -0.76378242 -9.25625147 -2.97835221 0 0 Z " fill="#FDFDFD" transform="translate(136.4765625,64.796875)"/>
<path d="M0 0 C2.80580577 1.36612266 5.10770186 2.84103267 7.4609375 4.890625 C9.81200657 6.38675987 11.02881124 6.40512471 13.7734375 6.578125 C19.80974339 7.10345211 23.92908065 9.55875645 28.14453125 13.85546875 C32.51723796 19.22765128 38.5234375 28.16169404 38.5234375 35.203125 C37.5334375 35.698125 37.5334375 35.698125 36.5234375 36.203125 C36.44996094 37.92208984 36.44996094 37.92208984 36.375 39.67578125 C36.29990949 41.20575035 36.22436444 42.73569718 36.1484375 44.265625 C36.1175 45.01779297 36.0865625 45.76996094 36.0546875 46.54492188 C35.8641489 50.21278999 35.52977315 53.56098881 34.46484375 57.0859375 C33.25825757 61.08118968 33.68544464 63.52713927 35.5234375 67.203125 C36.03234186 73.30997729 35.6009836 76.33272272 31.5234375 81.203125 C28.86543827 83.61948794 28.17049417 84.203125 24.5234375 84.203125 C24.44996094 85.09064453 24.44996094 85.09064453 24.375 85.99609375 C23.95886883 90.39416972 23.47378155 94.17241397 21.5234375 98.203125 C26.51154671 100.45266445 31.44742949 102.16424587 36.7109375 103.640625 C43.71296302 105.65677243 50.64503023 107.79290143 57.5234375 110.203125 C58.60367188 110.55890625 59.68390625 110.9146875 60.796875 111.28125 C69.43582764 114.30186281 78.164277 118.42291377 82.8984375 126.703125 C87.90605189 138.95431184 89.49312412 152.48707789 91.58642578 165.45214844 C93.63154513 178.08924883 96.0287764 190.64800102 98.5234375 203.203125 C99.13340576 202.5726123 99.74337402 201.94209961 100.37182617 201.29248047 C102.5234375 199.203125 102.5234375 199.203125 104.94921875 197.7734375 C108.02048809 195.89991659 110.21768122 193.66567993 112.7109375 191.078125 C118.3330731 185.26212265 118.3330731 185.26212265 122.203125 185.0703125 C123.78480469 185.07417969 123.78480469 185.07417969 125.3984375 185.078125 C126.44773437 185.07554687 127.49703125 185.07296875 128.578125 185.0703125 C131.5234375 185.203125 131.5234375 185.203125 133.47216797 185.69604492 C136.84829616 186.5306341 140.3116871 186.49640065 143.7734375 186.640625 C150.02273986 186.95356911 156.24257931 187.37477242 162.4609375 188.078125 C163.74871094 188.21992188 165.03648437 188.36171875 166.36328125 188.5078125 C169.5130064 189.2008299 170.63896127 189.65803902 172.5234375 192.203125 C167.45348414 192.50135755 163.32183032 191.98670232 158.3984375 190.703125 C148.58272133 188.29764752 139.19612527 188.33714344 129.5234375 191.203125 C128.2034375 191.203125 126.8834375 191.203125 125.5234375 191.203125 C125.5234375 190.543125 125.5234375 189.883125 125.5234375 189.203125 C126.8434375 188.873125 128.1634375 188.543125 129.5234375 188.203125 C124.73575235 187.3780133 121.02865147 187.2026135 116.87890625 189.9609375 C114.31683905 192.28293389 111.92537459 194.71697976 109.5234375 197.203125 C108.80285156 197.77546875 108.08226562 198.3478125 107.33984375 198.9375 C104.33781109 201.37778409 102.75997465 203.06937796 101.95703125 206.91796875 C101.67094727 214.08852535 103.14065525 220.85518794 106.5234375 227.203125 C108.5594395 229.46977756 108.5594395 229.46977756 110.5234375 231.203125 C111.14089844 230.18734375 111.75835937 229.1715625 112.39453125 228.125 C127.45884914 203.54889809 127.45884914 203.54889809 133.5234375 201.203125 C135.90498039 200.90675365 138.29934016 200.70778632 140.6953125 200.5703125 C141.3777301 200.52875031 142.06014771 200.48718811 142.76324463 200.44436646 C144.93291833 200.31410153 147.10305623 200.19594982 149.2734375 200.078125 C150.74874498 199.991685 152.22400636 199.90445421 153.69921875 199.81640625 C157.30682381 199.60132968 160.91480542 199.40266113 164.5234375 199.203125 C159.5734375 198.213125 154.6234375 197.223125 149.5234375 196.203125 C149.5234375 195.543125 149.5234375 194.883125 149.5234375 194.203125 C156.06785663 195.10137861 156.06785663 195.10137861 158.8671875 195.7265625 C166.81167641 197.15189728 174.85623089 196.60852315 182.5234375 194.203125 C182.1934375 193.543125 181.8634375 192.883125 181.5234375 192.203125 C179.62810408 191.73789437 179.62810408 191.73789437 177.4609375 191.578125 C175.511875 191.3925 175.511875 191.3925 173.5234375 191.203125 C173.5234375 190.873125 173.5234375 190.543125 173.5234375 190.203125 C178.4734375 189.213125 178.4734375 189.213125 183.5234375 188.203125 C179.5634375 188.533125 175.6034375 188.863125 171.5234375 189.203125 C171.8534375 188.543125 172.1834375 187.883125 172.5234375 187.203125 C178.7483361 185.20226474 185.04617887 184.99418117 191.5234375 185.203125 C191.925625 186.1621875 191.925625 186.1621875 192.3359375 187.140625 C193.41011502 189.53444186 193.41011502 189.53444186 196.5234375 190.203125 C196.1484375 192.640625 196.1484375 192.640625 195.5234375 195.203125 C193.13402124 196.39783313 191.10968919 196.62578122 188.4609375 197.015625 C184.24370872 197.66976624 180.22786912 198.55596157 176.12451172 199.72119141 C165.80183937 202.565219 155.49808386 202.68925679 144.85595703 202.61157227 C137.44526823 202.38621761 137.44526823 202.38621761 130.9296875 205.33984375 C128.4000595 208.34993681 125.9326738 211.33538423 123.7109375 214.578125 C123.31712891 215.11695313 122.92332031 215.65578125 122.51757812 216.2109375 C119.07453952 221.17174785 118.176272 225.5745862 118.9609375 231.515625 C118.25714701 237.44757345 114.41139942 240.86156753 110.5234375 245.203125 C109.79125 246.06679688 109.0590625 246.93046875 108.3046875 247.8203125 C100.2189221 257.18727312 89.35577657 267.36986815 76.33984375 268.37109375 C71.94086285 268.40921317 68.52819803 268.27009818 64.5234375 266.203125 C64.8534375 266.863125 65.1834375 267.523125 65.5234375 268.203125 C65.60871378 270.23545134 65.63059885 272.27059506 65.62109375 274.3046875 C65.61787109 275.51640625 65.61464844 276.728125 65.61132812 277.9765625 C65.60294922 279.24757813 65.59457031 280.51859375 65.5859375 281.828125 C65.58142578 283.106875 65.57691406 284.385625 65.57226562 285.703125 C65.56044953 288.86983792 65.54397565 292.03645856 65.5234375 295.203125 C64.8634375 295.203125 64.2034375 295.203125 63.5234375 295.203125 C63.49251511 294.34584808 63.49251511 294.34584808 63.46096802 293.47125244 C63.19538836 286.13167878 62.92338194 278.79235352 62.6484375 271.453125 C62.60430725 270.27131653 62.560177 269.08950806 62.51470947 267.87188721 C61.98617141 253.82593461 61.38525422 239.79223775 60.53079224 225.76223755 C57.97767735 183.63083804 57.97767735 183.63083804 62.5234375 164.203125 C62.8534375 164.203125 63.1834375 164.203125 63.5234375 164.203125 C63.55079368 165.91136633 63.56999256 167.61973905 63.5859375 169.328125 C63.59753906 170.27945313 63.60914063 171.23078125 63.62109375 172.2109375 C63.5234375 175.203125 63.5234375 175.203125 63.02563477 177.9128418 C62.4665839 181.57561697 62.37959995 185.14582135 62.390625 188.83984375 C62.38966827 189.55993118 62.38871155 190.28001862 62.38772583 191.02192688 C62.38704831 192.5405791 62.38887259 194.05923428 62.39306641 195.57788086 C62.39838134 197.86644241 62.3931272 200.15480417 62.38671875 202.44335938 C62.38344478 209.51754249 62.52552452 216.50827334 63.27392578 223.55004883 C63.86684427 229.85459408 63.92840862 236.20443603 64.12890625 242.53125 C64.23972785 245.75654061 64.37201842 248.97949256 64.5234375 252.203125 C64.57242188 253.25628906 64.62140625 254.30945313 64.671875 255.39453125 C64.73632812 256.38324219 64.80078125 257.37195313 64.8671875 258.390625 C64.94743164 259.71126953 64.94743164 259.71126953 65.02929688 261.05859375 C65.35318088 263.58524908 65.35318088 263.58524908 68.5234375 265.203125 C77.46965754 266.19714945 86.93598143 263.52730673 94.1484375 258.140625 C101.73282455 251.63372467 109.09119676 244.63246408 114.5234375 236.203125 C113.9253125 236.10128906 113.3271875 235.99945313 112.7109375 235.89453125 C107.61161959 234.28278255 104.57303402 228.60476087 102.2109375 224.078125 C99.4536219 218.09440692 99.39603232 212.70078927 99.5234375 206.203125 C87.73769457 217.90220806 78.35282271 227.54685598 74.5234375 244.203125 C73.8634375 244.203125 73.2034375 244.203125 72.5234375 244.203125 C74.62398782 229.46792124 82.03060322 219.86529421 92.83984375 210.11328125 C94.81891242 207.86788779 95.01644356 206.96041251 94.8984375 204.015625 C94.88554687 203.32082031 94.87265625 202.62601563 94.859375 201.91015625 C94.56554654 199.54244553 94.12177212 197.33265104 93.5859375 195.01171875 C92.47592919 190.18760475 91.79256972 185.3577919 91.1484375 180.453125 C89.77654219 170.48224314 88.03893184 160.61531556 86.03955078 150.75195312 C85.69410782 149.04598127 85.35397698 147.33892554 85.01904297 145.63085938 C84.53504847 143.17256475 84.0323431 140.71886951 83.5234375 138.265625 C83.38172119 137.53835205 83.24000488 136.8110791 83.09399414 136.06176758 C81.51336818 128.7060107 78.0531055 123.94926513 72.015625 119.703125 C62.20686172 113.79941795 51.20474791 110.73007427 40.28515625 107.59765625 C35.65155279 106.26572202 31.08428151 104.76443957 26.5234375 103.203125 C25.9665625 105.059375 25.9665625 105.059375 25.3984375 106.953125 C21.1102392 119.79739669 15.68615901 128.94206618 3.5234375 135.203125 C-3.22984105 137.85619872 -10.8132917 138.6025686 -17.6015625 135.703125 C-19.0246875 134.960625 -19.0246875 134.960625 -20.4765625 134.203125 C-20.53714844 134.904375 -20.59773438 135.605625 -20.66015625 136.328125 C-20.9215171 139.287534 -21.19840492 142.24525214 -21.4765625 145.203125 C-21.53714844 145.93917969 -21.59773438 146.67523438 -21.66015625 147.43359375 C-22.43598266 155.36602293 -26.00512087 162.5671285 -29.1015625 169.828125 C-32.16481092 177.06093492 -35.186036 184.30979529 -38.1640625 191.578125 C-38.54828369 192.51422607 -38.93250488 193.45032715 -39.32836914 194.41479492 C-41.32213022 199.29511698 -43.22879885 204.18973615 -45.0390625 209.140625 C-49.23902131 220.15288814 -54.85299614 230.20417296 -62.4765625 239.203125 C-63.1365625 240.110625 -63.7965625 241.018125 -64.4765625 241.953125 C-66.38334412 244.09825432 -67.61893239 244.83616009 -70.05883789 246.18432617 C-72.37540664 247.82520244 -73.32708123 248.66514155 -74.0944519 251.4269104 C-74.28732145 254.22686486 -74.26351725 256.94912797 -74.16015625 259.75390625 C-74.15025162 260.76784958 -74.14034698 261.78179291 -74.13014221 262.82646179 C-74.09102786 266.05766864 -74.00320891 269.28544924 -73.9140625 272.515625 C-73.87894494 274.70893523 -73.84700672 276.90229884 -73.81835938 279.09570312 C-73.74127688 284.46600818 -73.62421977 289.83432185 -73.4765625 295.203125 C-74.1365625 295.203125 -74.7965625 295.203125 -75.4765625 295.203125 C-76.1365625 280.353125 -76.7965625 265.503125 -77.4765625 250.203125 C-81.7665625 250.203125 -86.0565625 250.203125 -90.4765625 250.203125 C-97.59984169 248.01134679 -102.56297272 244.66156202 -106.4765625 238.203125 C-108.85087933 232.40402313 -110.05192627 227.03260897 -110.0234375 220.77734375 C-110.0201947 219.94216721 -110.0169519 219.10699066 -110.01361084 218.24650574 C-109.64452996 204.46786582 -106.6542702 190.81510316 -104.14697266 177.29852295 C-103.58634745 174.25423365 -103.0422059 171.20710188 -102.49845123 168.15976143 C-94.22650399 121.81935236 -94.22650399 121.81935236 -84.4765625 113.203125 C-74.46004799 106.52544866 -62.03810461 104.84537998 -50.4765625 102.203125 C-50.80140625 101.07003906 -51.12625 99.93695313 -51.4609375 98.76953125 C-52.94659271 92.06177172 -52.77535604 85.26966958 -52.73730469 78.43725586 C-52.72656962 76.14214763 -52.73725361 73.84781908 -52.75 71.55273438 C-52.74867847 70.0703108 -52.74611622 68.58788771 -52.7421875 67.10546875 C-52.74623596 66.43128403 -52.75028442 65.7570993 -52.75445557 65.06248474 C-52.72044738 61.55043277 -52.35172543 58.36540281 -51.46557617 54.984375 C-50.67842629 51.97490146 -50.24934887 49.84350537 -50.38671875 46.80078125 C-50.40895508 46.05981201 -50.43119141 45.31884277 -50.45410156 44.55541992 C-50.49615723 43.42197144 -50.49615723 43.42197144 -50.5390625 42.265625 C-50.70535354 32.78800266 -49.64211601 26.64431027 -43.4765625 19.203125 C-43.4765625 17.883125 -43.4765625 16.563125 -43.4765625 15.203125 C-44.1365625 15.203125 -44.7965625 15.203125 -45.4765625 15.203125 C-45.1465625 14.213125 -44.8165625 13.223125 -44.4765625 12.203125 C-43.2390625 11.97625 -42.0015625 11.749375 -40.7265625 11.515625 C-34.90460957 10.43679666 -30.53898101 7.38015451 -25.6875 4.17578125 C-17.64725972 -0.76378242 -9.25625147 -2.97835221 0 0 Z " fill="#454545" transform="translate(136.4765625,64.796875)"/>
<path d="M0 0 C1.58203125 2.9140625 1.58203125 2.9140625 2.8125 6.625 C3.23144531 7.83414063 3.65039062 9.04328125 4.08203125 10.2890625 C5.00353107 14.01427454 5.17184595 17.18010995 5 21 C3.515 21.495 3.515 21.495 2 22 C0.56956685 23.86044066 -0.77103536 25.79053641 -2.0625 27.75 C-5.21693826 32.44945597 -8.46419612 37.03051952 -11.9375 41.5 C-12.35185303 42.03383301 -12.76620605 42.56766602 -13.19311523 43.11767578 C-14.03616902 44.20125312 -14.88016478 45.28409821 -15.72509766 46.36621094 C-22.30546887 54.79896547 -28.77976559 63.29654089 -35 72 C-35.73089844 72.99386719 -36.46179688 73.98773438 -37.21484375 75.01171875 C-45.59377815 86.65628912 -52.40733825 98.74036036 -55 113 C-54.34 113 -53.68 113 -53 113 C-53.05929688 111.9996875 -53.11859375 110.999375 -53.1796875 109.96875 C-52.98376405 105.64139722 -51.89796247 102.37732882 -50.125 98.5 C-49.81256348 97.80567871 -49.50012695 97.11135742 -49.17822266 96.39599609 C-45.58504301 88.70578968 -40.92556549 81.88436814 -36 75 C-34.96341293 73.52873653 -33.92695938 72.05737898 -32.890625 70.5859375 C-27.29204711 62.69373232 -21.50216699 55.00517839 -15.39916992 47.49682617 C-10.82832301 41.85388989 -6.53598929 36.0250177 -2.27734375 30.14453125 C-0.53970168 27.74521416 1.21234851 25.36204443 3 23 C10.52912519 24.73749043 16.31179268 30.0501549 21.625 35.4375 C22.11226563 35.93121094 22.59953125 36.42492187 23.1015625 36.93359375 C25.42091864 42.26811287 22.49673131 48.92349412 20.5224762 54.03474426 C20.01441689 55.30725288 20.01441689 55.30725288 19.49609375 56.60546875 C19.14131454 57.51395065 18.78653534 58.42243256 18.42100525 59.35844421 C17.29067087 62.24302 16.1463969 65.12177458 15 68 C14.26698101 69.85623958 13.53406964 71.71252166 12.80126953 73.56884766 C10.95686535 78.22320127 9.08522526 82.86601575 7.20043945 87.50415039 C6.4389476 89.38345542 5.68214201 91.26466583 4.92993164 93.14770508 C-8.30400846 126.26826099 -8.30400846 126.26826099 -21 138 C-21.59941406 138.56589844 -22.19882813 139.13179687 -22.81640625 139.71484375 C-28.97081081 144.51341836 -36.58426631 143.85284999 -44 143 C-49.89115222 141.53855854 -53.39553885 138.14876677 -56.74609375 133.19140625 C-64.024764 120.47073956 -60.67382279 106.35005314 -58.25 92.6875 C-57.97268136 91.08250686 -57.69624107 89.47736173 -57.4206543 87.87207031 C-56.74546911 83.95122289 -56.05946585 80.03236324 -55.37030029 76.11395264 C-54.84408601 73.10992565 -54.32986338 70.10388677 -53.81640625 67.09765625 C-52.17444733 57.50948442 -50.4768901 47.93264892 -48.64453125 38.37890625 C-48.24925094 36.30667916 -47.86824236 34.23158942 -47.51171875 32.15234375 C-45.84821694 22.7933379 -43.46842236 14.95164743 -35.87890625 8.75 C-30.62589068 5.55685078 -24.89079943 4.02822705 -18.97167969 2.50830078 C-17.13203133 2.0340378 -15.30364522 1.51667053 -13.4765625 0.99609375 C-3.90347567 -1.63945978 -3.90347567 -1.63945978 0 0 Z " fill="#FCFCFC" transform="translate(89,170)"/>
<path d="M0 0 C1.15048828 0.01160156 1.15048828 0.01160156 2.32421875 0.0234375 C3.07574219 0.01570313 3.82726562 0.00796875 4.6015625 0 C9.1051513 0.01571933 12.91126093 0.35885478 17.07421875 2.2734375 C20.10447149 7.04838121 21.69394276 12.05801488 23.51171875 17.3984375 C25.50210333 23.13000792 27.34403713 28.40834669 33.07421875 31.2734375 C33.07421875 31.9334375 33.07421875 32.5934375 33.07421875 33.2734375 C34.71390625 33.11875 34.71390625 33.11875 36.38671875 32.9609375 C40.07421875 33.2734375 40.07421875 33.2734375 42.07421875 35.3359375 C43.38917042 39.19860802 43.17698578 41.34482995 42.07421875 45.2734375 C40.59871172 47.69369364 39.14098369 49.25588125 37.07421875 51.2734375 C36.08421875 51.2734375 35.09421875 51.2734375 34.07421875 51.2734375 C33.74421875 50.6134375 33.41421875 49.9534375 33.07421875 49.2734375 C32.84347656 50.2634375 32.61273438 51.2534375 32.375 52.2734375 C29.20974632 65.32287762 24.69023586 74.27816238 12.84375 81.6640625 C7.51233463 84.34392439 1.97990079 85.5015304 -3.92578125 84.2734375 C-10.97769701 81.39397133 -13.13067583 77.20957982 -16.23828125 70.4609375 C-16.66689453 69.58373047 -17.09550781 68.70652344 -17.53710938 67.80273438 C-21.76060606 58.99335049 -24.13137662 51.2056109 -22.42578125 41.3984375 C-21.94051982 38.36555359 -21.99484002 35.76998847 -22.11328125 32.7109375 C-22.16800169 27.6492968 -22.16800169 27.6492968 -20.11328125 24.4609375 C-19.39140625 23.7390625 -18.66953125 23.0171875 -17.92578125 22.2734375 C-16.88126687 20.29632099 -15.86879987 18.30092754 -14.92578125 16.2734375 C-12.94578125 16.2734375 -10.96578125 16.2734375 -8.92578125 16.2734375 C-8.92578125 15.6134375 -8.92578125 14.9534375 -8.92578125 14.2734375 C-10.24578125 14.2734375 -11.56578125 14.2734375 -12.92578125 14.2734375 C-12.13651328 5.98612378 -8.57713284 0.03014809 0 0 Z " fill="#F9DBBF" transform="translate(127.92578125,95.7265625)"/>
<path d="M0 0 C2.80580577 1.36612266 5.10770186 2.84103267 7.4609375 4.890625 C9.81200657 6.38675987 11.02881124 6.40512471 13.7734375 6.578125 C19.80974339 7.10345211 23.92908065 9.55875645 28.14453125 13.85546875 C32.51723796 19.22765128 38.5234375 28.16169404 38.5234375 35.203125 C37.5334375 35.698125 37.5334375 35.698125 36.5234375 36.203125 C36.46285156 37.40710938 36.40226562 38.61109375 36.33984375 39.8515625 C36.25544018 41.42709577 36.17079209 43.00261596 36.0859375 44.578125 C36.04662109 45.3721875 36.00730469 46.16625 35.96679688 46.984375 C35.63671875 52.9765625 35.63671875 52.9765625 34.5234375 55.203125 C33.8634375 55.203125 33.2034375 55.203125 32.5234375 55.203125 C31.8634375 57.843125 31.2034375 60.483125 30.5234375 63.203125 C28.5434375 63.533125 26.5634375 63.863125 24.5234375 64.203125 C24.5234375 63.543125 24.5234375 62.883125 24.5234375 62.203125 C23.0384375 61.708125 23.0384375 61.708125 21.5234375 61.203125 C15.34737646 55.66715992 13.29794186 47.54339431 10.8203125 39.93359375 C9.69124165 36.18321339 9.69124165 36.18321339 7.5234375 33.203125 C5.33762255 32.61733308 5.33762255 32.61733308 2.8359375 32.515625 C1.94777344 32.45117188 1.05960938 32.38671875 0.14453125 32.3203125 C-3.07278359 32.17646832 -6.25682035 32.13313061 -9.4765625 32.203125 C-9.4765625 31.543125 -9.4765625 30.883125 -9.4765625 30.203125 C-12.99356973 30.32652876 -14.52694749 30.40546121 -17.4765625 32.203125 C-19.27763321 35.07617567 -20.70652766 37.86850246 -22.04125977 40.97314453 C-23.68958692 44.80455567 -25.31115932 47.46436312 -28.4765625 50.203125 C-27.8165625 50.203125 -27.1565625 50.203125 -26.4765625 50.203125 C-27.84154268 55.11705365 -30.23697966 56.58721218 -34.4765625 59.203125 C-34.8065625 59.863125 -35.1365625 60.523125 -35.4765625 61.203125 C-36.1365625 61.203125 -36.7965625 61.203125 -37.4765625 61.203125 C-37.38955078 59.44935547 -37.38955078 59.44935547 -37.30078125 57.66015625 C-37.25386801 56.1120192 -37.20836952 54.56383883 -37.1640625 53.015625 C-37.12216797 52.24669922 -37.08027344 51.47777344 -37.03710938 50.68554688 C-36.94403412 46.34823982 -37.05968208 44.72971079 -39.8515625 41.203125 C-42.21941772 39.39904483 -43.561269 38.5270465 -46.4765625 38.203125 C-47.1365625 39.523125 -47.7965625 40.843125 -48.4765625 42.203125 C-49.04522798 34.77888128 -48.08850977 28.7867747 -44.4765625 22.203125 C-42.83984375 20.41796875 -42.83984375 20.41796875 -41.4765625 19.203125 C-42.1365625 17.883125 -42.7965625 16.563125 -43.4765625 15.203125 C-44.1365625 15.203125 -44.7965625 15.203125 -45.4765625 15.203125 C-45.1465625 14.213125 -44.8165625 13.223125 -44.4765625 12.203125 C-43.2390625 11.97625 -42.0015625 11.749375 -40.7265625 11.515625 C-34.90460957 10.43679666 -30.53898101 7.38015451 -25.6875 4.17578125 C-17.64725972 -0.76378242 -9.25625147 -2.97835221 0 0 Z " fill="#EE8B65" transform="translate(136.4765625,64.796875)"/>
<path d="M0 0 C0.99 0 1.98 0 3 0 C2.57992676 1.51775024 2.57992676 1.51775024 2.15136719 3.06616211 C-0.72778308 13.99213252 -1.64832914 24.29713184 -1.75 35.5625 C-1.77826651 37.17125438 -1.80820805 38.77998022 -1.83984375 40.38867188 C-1.91241911 44.25906062 -1.96275218 48.12911683 -2 52 C-1.34 52 -0.68 52 0 52 C-0.0721875 51.00742188 -0.144375 50.01484375 -0.21875 48.9921875 C-2.7294718 13.0942077 -2.7294718 13.0942077 4 3 C4.99 3.33 5.98 3.66 7 4 C7.28210147 11.56972289 6.75346519 18.85761769 5.9375 26.375 C5.04047223 34.77376002 4.95403017 42.5898372 6 51 C5.91298828 49.63681641 5.91298828 49.63681641 5.82421875 48.24609375 C5.46910192 38.35355351 6.7398007 30.06042386 11 21 C11.99 20.34 12.98 19.68 14 19 C15 20 15 20 15.1875 23.0625 C15.04429835 26.06973463 14.78346933 28.12590084 14 30.9375 C12.86236413 35.11689986 12.79355254 38.66460341 13 43 C13.04125 44.11375 13.0825 45.2275 13.125 46.375 C14.13893516 50.57558852 15.94979732 53.36569768 18.234375 56.9921875 C29.16670135 75.61584079 29.16670135 75.61584079 27 85 C25.53731866 90.40288191 23.81825152 95.70758933 22 101 C21.05125 100.154375 20.1025 99.30875 19.125 98.4375 C15.39040727 95.16207851 11.33775507 92.6732397 7.0390625 90.19921875 C4.36313308 87.31311097 4.54710769 85.3896496 4.30566406 81.57055664 C3.73406564 76.76356002 1.79807936 72.36600359 0.0625 67.875 C-3.90291673 57.41878487 -6.41285321 48.70664855 -6.4375 37.4375 C-6.44064209 36.25687988 -6.44378418 35.07625977 -6.44702148 33.85986328 C-6.07589722 6.07589722 -6.07589722 6.07589722 0 0 Z " fill="#FADBC0" transform="translate(91,105)"/>
<path d="M0 0 C1.17949219 0.01804688 2.35898437 0.03609375 3.57421875 0.0546875 C4.92966797 0.08949219 4.92966797 0.08949219 6.3125 0.125 C3.3125 2.125 3.3125 2.125 -0.6875 2.125 C-0.6875 2.785 -0.6875 3.445 -0.6875 4.125 C0.36824219 3.80015625 0.36824219 3.80015625 1.4453125 3.46875 C13.28884204 0.12906021 23.82510833 0.28077913 35.66796875 3.56640625 C38.40080496 4.37637693 38.40080496 4.37637693 41.3125 3.125 C41.6425 2.465 41.9725 1.805 42.3125 1.125 C45.2421875 1.17382812 45.2421875 1.17382812 48.171875 1.22265625 C50.29983715 1.19904348 50.29983715 1.19904348 52.25 0.625 C54.74232405 0.02080023 57.0012922 0.0287999 59.5625 0.0625 C60.45453125 0.07152344 61.3465625 0.08054688 62.265625 0.08984375 C62.94109375 0.10144531 63.6165625 0.11304688 64.3125 0.125 C64.3125 0.455 64.3125 0.785 64.3125 1.125 C61.0125 1.785 57.7125 2.445 54.3125 3.125 C55.3025 5.105 55.3025 5.105 56.3125 7.125 C45.3823277 12.26861049 34.56171556 10.53016795 23.3125 7.125 C23.3125 7.785 23.3125 8.445 23.3125 9.125 C24.27349609 9.19847656 24.27349609 9.19847656 25.25390625 9.2734375 C30.52446085 9.7290145 35.28236288 10.4847379 40.3125 12.125 C40.3125 12.455 40.3125 12.785 40.3125 13.125 C39.3337793 13.1751123 38.35505859 13.22522461 37.34667969 13.27685547 C33.70830813 13.46549962 30.07065629 13.66581696 26.43310547 13.86962891 C24.86003481 13.95613969 23.28678772 14.03950312 21.71337891 14.11962891 C19.44900395 14.23549395 17.1855093 14.36274287 14.921875 14.4921875 C14.22068542 14.52561249 13.51949585 14.55903748 12.79705811 14.59347534 C8.1969257 14.87134652 4.99206906 15.2516993 1.85205078 18.75390625 C1.40845215 19.39199219 0.96485352 20.03007812 0.5078125 20.6875 C-0.23964233 21.75303101 -0.23964233 21.75303101 -1.00219727 22.84008789 C-1.51709717 23.59410889 -2.03199707 24.34812988 -2.5625 25.125 C-3.09480225 25.88868896 -3.62710449 26.65237793 -4.17553711 27.43920898 C-7.55383833 32.32840613 -10.70176555 37.28878066 -13.50390625 42.53515625 C-13.89449219 43.05980469 -14.28507813 43.58445312 -14.6875 44.125 C-15.6775 44.125 -16.6675 44.125 -17.6875 44.125 C-21.40839177 39.87412958 -23.67819918 34.63027719 -24.6875 29.125 C-24.89890625 28.27421875 -25.1103125 27.4234375 -25.328125 26.546875 C-25.96628086 22.12705478 -25.96235414 18.88476799 -23.25488281 15.14746094 C-9.78855536 -0.19383278 -9.78855536 -0.19383278 0 0 Z " fill="#F9DBC0" transform="translate(262.6875,251.875)"/>
<path d="M0 0 C5.5648604 -0.71040771 9.13360377 0.3667585 13.71875 3.6171875 C18.21274082 8.31125326 20.63092374 14.3769824 23.22998047 20.26660156 C24.09314175 22.2096723 25.02577965 24.11030626 26 26 C25.505 26.495 25.505 26.495 25 27 C24.78855708 29.81630224 24.62371843 32.61717799 24.5 35.4375 C24.13440018 43.73119964 24.13440018 43.73119964 23 46 C22.34 46 21.68 46 21 46 C20.34 48.64 19.68 51.28 19 54 C16.03 54.495 16.03 54.495 13 55 C13 54.34 13 53.68 13 53 C11.515 52.505 11.515 52.505 10 52 C10 51.67 10 51.34 10 51 C11.65 51 13.3 51 15 51 C15 50.34 15 49.68 15 49 C14.113125 49 13.22625 49 12.3125 49 C8.14718797 47.74254731 7.30795888 46.40667284 5.21875 42.73046875 C3.40921266 38.67640914 2.07916785 34.46187153 0.87475586 30.19287109 C-0.31425651 26.20283475 -1.33840728 24.07178527 -5 22 C-6.31836295 21.30419733 -7.64791086 20.62775567 -9 20 C-8.01 17.36 -7.02 14.72 -6 12 C-5.34 12 -4.68 12 -4 12 C-4 9.36 -4 6.72 -4 4 C-2.68 3.67 -1.36 3.34 0 3 C0 2.01 0 1.02 0 0 Z " fill="#EC8B65" transform="translate(148,74)"/>
<path d="M0 0 C0.66 0.33 1.32 0.66 2 1 C1.401875 1.66 0.80375 2.32 0.1875 3 C-4.26644737 9.10827068 -5.40021703 14.52928215 -5 22 C-4.67 21.34 -4.34 20.68 -4 20 C-0.72822744 20.28043765 1.05713713 21.03809142 3.8125 22.875 C7.6255988 28.322284 6.35998045 34.34514417 5.5 40.6875 C5.335 41.450625 5.17 42.21375 5 43 C5.66 43 6.32 43 7 43 C7.2475 42.38125 7.495 41.7625 7.75 41.125 C9 39 9 39 10.9375 38.0625 C13.71944543 36.6293766 14.56938502 34.71816847 16 32 C15.34 32 14.68 32 14 32 C15 29 15 29 16.8671875 27.19921875 C19.37879742 24.60940852 20.60668675 22.07568109 22.125 18.8125 C24.78864353 13.10567823 24.78864353 13.10567823 27 12 C28.99960012 11.960008 31.00047242 11.95653201 33 12 C33 12.66 33 13.32 33 14 C32.236875 13.938125 31.47375 13.87625 30.6875 13.8125 C28.03263748 13.74731626 28.03263748 13.74731626 26.46875 15.1875 C24.67889571 17.39625636 23.81307844 19.53079173 22.8125 22.1875 C22.46832031 23.08855469 22.12414062 23.98960938 21.76953125 24.91796875 C21.38861328 25.94857422 21.38861328 25.94857422 21 27 C22.32 27 23.64 27 25 27 C25 27.66 25 28.32 25 29 C23.02 29 21.04 29 19 29 C18.7525 29.86625 18.505 30.7325 18.25 31.625 C17 35 17 35 14.875 37.75 C12.59448226 41.70289742 12.73318903 44.1649083 12.92578125 48.62109375 C13.01598127 51.51224175 12.48454124 54.15332022 12 57 C11.35532348 66.98327642 14.40794691 74.41082049 18.75 83.25 C19.37648438 84.59578125 19.37648438 84.59578125 20.015625 85.96875 C21.9933815 89.99661994 23.27951539 92.50825536 27.0390625 95.07421875 C34.10888638 97.28470458 39.47568786 96.5791993 46.1875 93.4375 C57.22687144 87.37222275 61.23335804 80.19472583 64.6965332 68.37524414 C65.49183454 65.59081243 66.25189473 62.7974362 67 60 C67.495 61.98 67.495 61.98 68 64 C72.49326108 61.8140892 74.33201545 59.72595623 76 55 C75.76446775 51.93808079 75.36902471 49.73804942 74 47 C70.97065509 46.34227572 70.97065509 46.34227572 68 46 C68 45.67 68 45.34 68 45 C69.65 45 71.3 45 73 45 C73.12375 44.05125 73.2475 43.1025 73.375 42.125 C74 39 74 39 76 37 C75.97679687 37.61488281 75.95359375 38.22976562 75.9296875 38.86328125 C75.91164063 39.67152344 75.89359375 40.47976562 75.875 41.3125 C75.85179687 42.11300781 75.82859375 42.91351563 75.8046875 43.73828125 C75.84182678 46.28388576 75.84182678 46.28388576 78 49 C78.47128944 53.79144265 78.51298393 56.0289947 76.25 60.3125 C74.26094167 62.68831968 72.66887208 64.45033234 70 66 C69.01 66 68.02 66 67 66 C66.92652344 66.88751953 66.92652344 66.88751953 66.8515625 67.79296875 C66.42975001 72.25109045 65.76019831 75.85096113 64 80 C64.33 80.66 64.66 81.32 65 82 C63.68 82 62.36 82 61 82 C60.79375 82.52851563 60.5875 83.05703125 60.375 83.6015625 C55.54696885 92.02318503 45.12891334 101.79061641 36 105 C32.26743845 105.42372191 28.73282577 105.38321785 25 105 C24.67 105.66 24.34 106.32 24 107 C23.9484375 106.33097656 23.896875 105.66195312 23.84375 104.97265625 C22.55157388 94.03321072 17.90195896 83.81846884 11.7890625 74.703125 C8.38633631 69.56188805 8.50344769 63.02791406 9 57 C9.44863837 54.96357191 9.99032135 52.97192057 10.5546875 50.96484375 C11.24232929 47.93077513 11.12913859 45.09932621 11 42 C7.4421361 43.77893195 6.9340216 47.81946852 5.69067383 51.41821289 C3.17204051 59.51334532 3.56811016 67.6213371 4 76 C-1.46921117 67.79618325 1.22095311 54.98914235 2.23291016 45.64819336 C2.94145712 39.05339551 3.24734043 32.63696828 3 26 C2.34 26 1.68 26 1 26 C-3.63678901 36.64757665 -3.27149469 48.40940842 -3.125 59.8125 C-3.11493373 61.19856112 -3.10581442 62.58462946 -3.09765625 63.97070312 C-3.07435806 67.31399273 -3.04164862 70.65689731 -3 74 C-3.66 74 -4.32 74 -5 74 C-5.07515721 69.25353305 -5.12906792 64.50742586 -5.16479492 59.76049805 C-5.17971634 58.15171257 -5.20006091 56.54296656 -5.22631836 54.93432617 C-5.40503644 43.6891045 -5.54092619 32.16563624 0 22 C-0.99 22.33 -1.98 22.66 -3 23 C-3.96919189 25.45070261 -3.96919189 25.45070261 -4.5625 28.4375 C-4.79066406 29.42621094 -5.01882812 30.41492188 -5.25390625 31.43359375 C-5.50011719 32.61050781 -5.74632813 33.78742188 -6 35 C-6.16918945 35.70189453 -6.33837891 36.40378906 -6.51269531 37.12695312 C-8.2091041 44.59607785 -8.43624056 51.98810779 -8.625 59.625 C-8.66367188 60.91535156 -8.70234375 62.20570313 -8.7421875 63.53515625 C-8.83566342 66.6899687 -8.92142313 69.84478727 -9 73 C-9.33 73 -9.66 73 -10 73 C-10.04980916 68.58920774 -10.08591133 64.17856888 -10.10986328 59.76757812 C-10.11985901 58.27015324 -10.13346014 56.77274756 -10.15087891 55.27539062 C-10.17541288 53.11062857 -10.18654744 50.94612677 -10.1953125 48.78125 C-10.20578613 47.48251953 -10.21625977 46.18378906 -10.22705078 44.84570312 C-10.05190773 41.87919411 -9.73305196 39.60953049 -8.9934082 36.78881836 C-8.20308816 33.77456997 -7.77258067 31.64493671 -7.91015625 28.59765625 C-7.93247314 27.85676758 -7.95479004 27.11587891 -7.9777832 26.35253906 C-8.00573975 25.59682617 -8.03369629 24.84111328 -8.0625 24.0625 C-8.22790758 14.10557258 -7.01085712 7.38982237 0 0 Z " fill="#4F3522" transform="translate(94,83)"/>
<path d="M0 0 C2.475 0.495 2.475 0.495 5 1 C4.22841469 11.41640173 0.51754871 21.09287929 -7.375 28.1875 C-13.71537754 33.37384736 -19.42665071 35.14120786 -27.5 35.1875 C-28.6240625 35.20167969 -29.748125 35.21585938 -30.90625 35.23046875 C-33.86976056 35.00970218 -35.5067415 34.5460647 -38 33 C-37.46228519 29.62007831 -36.85696068 26.31262111 -36 23 C-35.32195312 22.99742187 -34.64390625 22.99484375 -33.9453125 22.9921875 C-19.58828573 22.39563514 -11.65827405 13.20321207 -2.23999023 3.41699219 C-0.8949218 2.00023451 -0.8949218 2.00023451 0 0 Z " fill="#F6D9BF" transform="translate(155,165)"/>
<path d="M0 0 C1.65576954 4.03276384 0.19797238 7.3042746 -1.1875 11.1875 C-1.39697266 11.80947266 -1.60644531 12.43144531 -1.82226562 13.07226562 C-3.27489335 17.28359288 -5.00310121 21.32492099 -6.83764648 25.38208008 C-9.03602966 30.33340602 -11.08534239 35.34842982 -13.15405273 40.35498047 C-13.9307228 42.23360717 -14.71036142 44.11098229 -15.49023438 45.98828125 C-17.95631928 51.94136452 -20.36092939 57.90865449 -22.63671875 63.9375 C-26.86045077 74.99937399 -32.33761248 84.95522298 -40 94 C-40.66 94.9075 -41.32 95.815 -42 96.75 C-43.90678162 98.89512932 -45.14236989 99.63303509 -47.58227539 100.98120117 C-49.89884414 102.62207744 -50.85051873 103.46201655 -51.6178894 106.2237854 C-51.81075895 109.02373986 -51.78695475 111.74600297 -51.68359375 114.55078125 C-51.67368912 115.56472458 -51.66378448 116.57866791 -51.65357971 117.62333679 C-51.61446536 120.85454364 -51.52664641 124.08232424 -51.4375 127.3125 C-51.40238244 129.50581023 -51.37044422 131.69917384 -51.34179688 133.89257812 C-51.26471438 139.26288318 -51.14765727 144.63119685 -51 150 C-51.66 150 -52.32 150 -53 150 C-53.66 135.15 -54.32 120.3 -55 105 C-59.29 105 -63.58 105 -68 105 C-75.12327919 102.80822179 -80.08641022 99.45843702 -84 93 C-86.55311596 86.89521848 -87.50455884 81.3524837 -87.40625 74.765625 C-87.39920044 73.90801575 -87.39215088 73.05040649 -87.3848877 72.16680908 C-87.1600152 62.18803541 -85.37795204 52.52687401 -83.5 42.75 C-83.16113784 40.91436129 -82.8238917 39.0784235 -82.48828125 37.2421875 C-81.67732411 32.8244766 -80.84502069 28.41131622 -80 24 C-79.34 24.66 -78.68 25.32 -78 26 C-78.13671875 28.9140625 -78.13671875 28.9140625 -78.6875 32.625 C-78.78417969 33.28870605 -78.88085938 33.95241211 -78.98046875 34.63623047 C-79.91100653 40.83739241 -81.09118763 46.9906903 -82.26953125 53.1484375 C-86.41852527 74.59721086 -86.41852527 74.59721086 -79.8671875 94.9140625 C-76.99746642 98.7720319 -73.65408586 101.0459124 -69 102 C-62.05254808 102.774547 -55.18629139 103.39652592 -49.0625 99.5625 C-46.94681445 97.89030145 -46.94681445 97.89030145 -45 96 C-44.33871094 95.40445313 -43.67742187 94.80890625 -42.99609375 94.1953125 C-38.63313129 89.80673578 -35.63788383 84.87704447 -32.77734375 79.44921875 C-32.19363258 78.34185867 -32.19363258 78.34185867 -31.59812927 77.21212769 C-26.98194456 68.26710725 -23.26892868 58.97402124 -19.5625 49.625 C-18.82270063 47.77920384 -18.08246158 45.93358386 -17.34179688 44.08813477 C-11.89175713 30.46034246 -6.68212713 16.75380507 -1.76171875 2.92553711 C-1 1 -1 1 0 0 Z " fill="#404040" transform="translate(114,210)"/>
<path d="M0 0 C7.05083871 -0.52014384 12.0283978 0.09386962 18 4 C18.639375 4.556875 19.27875 5.11375 19.9375 5.6875 C22.28856907 7.18363487 23.50537374 7.20199971 26.25 7.375 C32.28630589 7.90032711 36.40564315 10.35563145 40.62109375 14.65234375 C45.23959933 20.32650775 48.50723739 27.15217742 51 34 C50.505 34.99 50.505 34.99 50 36 C47.44019989 32.96762141 45.91966798 29.78902226 44.29858398 26.21118164 C40.39463693 17.38967239 40.39463693 17.38967239 32.96484375 11.6171875 C29.9377302 10.66632479 27.17099991 10.19818749 24 10 C24 10.99 24 11.98 24 13 C23.01 13.66 22.02 14.32 21 15 C20.63239269 17.32817964 20.29758419 19.6618385 20 22 C19.34 22.33 18.68 22.66 18 23 C17.26924352 25.3140622 16.59861742 27.64828869 16 30 C16.928125 30.4125 17.85625 30.825 18.8125 31.25 C24.42594525 34.33189151 25.70919644 38.52784826 27.5 44.4375 C28.87076319 48.93448764 30.19383081 53.16371806 33 57 C36.07561246 58.35980881 36.07561246 58.35980881 39 59 C39 59.66 39 60.32 39 61 C36.875 61.4375 36.875 61.4375 34 61 C27.59084567 55.68176556 25.77514144 48.43824208 23.296875 40.765625 C22.17252175 36.9841261 22.17252175 36.9841261 20 34 C17.64312682 33.41706255 17.64312682 33.41706255 15 33.3125 C14.113125 33.24675781 13.22625 33.18101563 12.3125 33.11328125 C10.8762264 33.04292325 9.43799586 33 8 33 C7.773125 32.21625 7.54625 31.4325 7.3125 30.625 C6.21875 27.78125 6.21875 27.78125 3.375 26.6875 C2.59125 26.460625 1.8075 26.23375 1 26 C1 25.34 1 24.68 1 24 C1.804375 23.79375 2.60875 23.5875 3.4375 23.375 C4.7059375 22.694375 4.7059375 22.694375 6 22 C6.89830839 18.94727535 6.89830839 18.94727535 7 16 C7.99 16 8.98 16 10 16 C9.34 18.97 8.68 21.94 8 25 C8.66 25 9.32 25 10 25 C10 25.66 10 26.32 10 27 C10.66 27 11.32 27 12 27 C12.06058594 25.92878906 12.12117187 24.85757813 12.18359375 23.75390625 C12.26798537 22.35675609 12.35263406 20.95962143 12.4375 19.5625 C12.49647461 18.50192383 12.49647461 18.50192383 12.55664062 17.41992188 C12.88671875 12.11328125 12.88671875 12.11328125 14 11 C14.36760731 8.67182036 14.70241581 6.3381615 15 4 C10.01770224 2.08373163 5.27315333 1.4452885 0 1 C0 0.67 0 0.34 0 0 Z " fill="#E58B6A" transform="translate(124,64)"/>
<path d="M0 0 C0.33 0 0.66 0 1 0 C1.02735618 1.70824133 1.04655506 3.41661405 1.0625 5.125 C1.07410156 6.07632813 1.08570313 7.02765625 1.09765625 8.0078125 C1 11 1 11 0.50219727 13.7097168 C-0.0568536 17.37249197 -0.14383755 20.94269635 -0.1328125 24.63671875 C-0.13424759 25.7168499 -0.13424759 25.7168499 -0.13571167 26.81880188 C-0.13638919 28.3374541 -0.13456491 29.85610928 -0.13037109 31.37475586 C-0.12505616 33.66331741 -0.1303103 35.95167917 -0.13671875 38.24023438 C-0.13999272 45.31441749 0.00208702 52.30514834 0.75048828 59.34692383 C1.34340677 65.65146908 1.40497112 72.00131103 1.60546875 78.328125 C1.71629035 81.55341561 1.84858092 84.77636756 2 88 C2.07347656 89.57974609 2.07347656 89.57974609 2.1484375 91.19140625 C2.21289062 92.18011719 2.27734375 93.16882813 2.34375 94.1875 C2.39724609 95.06792969 2.45074219 95.94835937 2.50585938 96.85546875 C2.82974338 99.38212408 2.82974338 99.38212408 6 101 C14.94622004 101.99402445 24.41254393 99.32418173 31.625 93.9375 C39.20938705 87.43059967 46.56775926 80.42933908 52 72 C52.99 72.99 52.99 72.99 54 74 C53.41992188 74.64066406 52.83984375 75.28132813 52.2421875 75.94140625 C51.46101563 76.80636719 50.67984375 77.67132813 49.875 78.5625 C49.04742187 79.47773438 48.21984375 80.39296875 47.3671875 81.3359375 C45.51808634 83.41693914 43.74869013 85.52386645 42 87.6875 C35.5054199 95.27045753 25.95449338 102.09924044 16 104 C10.95066116 104.38841068 6.59465215 104.37143337 2 102 C2.33 102.66 2.66 103.32 3 104 C3.08527628 106.03232634 3.10716135 108.06747006 3.09765625 110.1015625 C3.09282227 111.91914063 3.09282227 111.91914063 3.08789062 113.7734375 C3.07951172 115.04445313 3.07113281 116.31546875 3.0625 117.625 C3.05798828 118.90375 3.05347656 120.1825 3.04882812 121.5 C3.03701203 124.66671292 3.02053815 127.83333356 3 131 C2.34 131 1.68 131 1 131 C0.97938507 130.42848206 0.95877014 129.85696411 0.93753052 129.26812744 C0.67195086 121.92855378 0.39994444 114.58922852 0.125 107.25 C0.08086975 106.06819153 0.0367395 104.88638306 -0.00872803 103.66876221 C-0.53726609 89.62280961 -1.13818328 75.58911275 -1.99264526 61.55911255 C-4.54576015 19.42771304 -4.54576015 19.42771304 0 0 Z " fill="#4D4D4D" transform="translate(199,229)"/>
<path d="M0 0 C0.33 0 0.66 0 1 0 C0.97679687 0.61488281 0.95359375 1.22976562 0.9296875 1.86328125 C0.91164062 2.67152344 0.89359375 3.47976562 0.875 4.3125 C0.85179687 5.11300781 0.82859375 5.91351563 0.8046875 6.73828125 C0.84182678 9.28388576 0.84182678 9.28388576 3 12 C3.47128944 16.79144265 3.51298393 19.0289947 1.25 23.3125 C-0.73905833 25.68831968 -2.33112792 27.45033234 -5 29 C-5.99 29 -6.98 29 -8 29 C-8.04898438 29.59167969 -8.09796875 30.18335938 -8.1484375 30.79296875 C-8.57024999 35.25109045 -9.23980169 38.85096113 -11 43 C-10.67 43.66 -10.34 44.32 -10 45 C-11.32 45 -12.64 45 -14 45 C-14.20625 45.52851563 -14.4125 46.05703125 -14.625 46.6015625 C-19.45303115 55.02318503 -29.87108666 64.79061641 -39 68 C-42.73256155 68.42372191 -46.26717423 68.38321785 -50 68 C-50.495 68.99 -50.495 68.99 -51 70 C-51 66.37 -51 62.74 -51 59 C-48 58 -48 58 -45 59 C-36.47258267 60.27830355 -30.13264434 57.54718652 -23 53 C-13.21156466 45.61913314 -11.0201732 34.29352001 -8 23 C-7.505 24.98 -7.505 24.98 -7 27 C-2.50673892 24.8140892 -0.66798455 22.72595623 1 18 C0.76446775 14.93808079 0.36902471 12.73804942 -1 10 C-4.02934491 9.34227572 -4.02934491 9.34227572 -7 9 C-7 8.67 -7 8.34 -7 8 C-5.35 8 -3.7 8 -2 8 C-1.855625 7.05125 -1.71125 6.1025 -1.5625 5.125 C-1 2 -1 2 0 0 Z " fill="#120E0A" transform="translate(169,120)"/>
<path d="M0 0 C0.89203125 0.00902344 1.7840625 0.01804688 2.703125 0.02734375 C3.37859375 0.03894531 4.0540625 0.05054688 4.75 0.0625 C4.75 0.3925 4.75 0.7225 4.75 1.0625 C1.45 1.7225 -1.85 2.3825 -5.25 3.0625 C-4.59 4.3825 -3.93 5.7025 -3.25 7.0625 C-14.1801723 12.20611049 -25.00078444 10.46766795 -36.25 7.0625 C-36.58 7.7225 -36.91 8.3825 -37.25 9.0625 C-38.24 9.5575 -38.24 9.5575 -39.25 10.0625 C-40.75 8.8125 -40.75 8.8125 -42.25 7.0625 C-42.25 5.7425 -42.25 4.4225 -42.25 3.0625 C-45.22 2.5675 -45.22 2.5675 -48.25 2.0625 C-48.25 1.7325 -48.25 1.4025 -48.25 1.0625 C-39.69741644 0.71629347 -32.16218375 1.21016789 -23.89453125 3.50390625 C-21.16169504 4.31387693 -21.16169504 4.31387693 -18.25 3.0625 C-17.92 2.4025 -17.59 1.7425 -17.25 1.0625 C-14.3203125 1.11132812 -14.3203125 1.11132812 -11.390625 1.16015625 C-9.26266285 1.13654348 -9.26266285 1.13654348 -7.3125 0.5625 C-4.82017595 -0.04169977 -2.5612078 -0.0337001 0 0 Z " fill="#EAD0BA" transform="translate(322.25,251.9375)"/>
<path d="M0 0 C0.268125 0.639375 0.53625 1.27875 0.8125 1.9375 C1.88667752 4.33131686 1.88667752 4.33131686 5 5 C4.625 7.4375 4.625 7.4375 4 10 C1.47378979 11.2631051 -0.83104079 11.50956448 -3.625 11.9375 C-7.23223269 12.50502648 -10.690367 13.14189256 -14.1875 14.1875 C-23.34753678 16.13963899 -32.97822407 12.88993725 -42 11 C-42 10.34 -42 9.68 -42 9 C-35.45558087 9.89825361 -35.45558087 9.89825361 -32.65625 10.5234375 C-24.71176109 11.94877228 -16.66720661 11.40539815 -9 9 C-9.495 8.01 -9.495 8.01 -10 7 C-11.89533342 6.53476937 -11.89533342 6.53476937 -14.0625 6.375 C-15.361875 6.25125 -16.66125 6.1275 -18 6 C-18 5.67 -18 5.34 -18 5 C-14.7 4.34 -11.4 3.68 -8 3 C-13.94 3.495 -13.94 3.495 -20 4 C-19.67 3.34 -19.34 2.68 -19 2 C-12.7751014 -0.00086026 -6.47725863 -0.20894383 0 0 Z " fill="#392B20" transform="translate(328,250)"/>
<path d="M0 0 C0 0.33 0 0.66 0 1 C-4.36451493 1.83536949 -8.49684064 2.12254414 -12.9375 2.140625 C-14.24460937 2.15996094 -15.55171875 2.17929687 -16.8984375 2.19921875 C-18.95244369 2.22819684 -21.00534611 2.25000127 -23.05957031 2.25048828 C-31.83808277 1.87883787 -31.83808277 1.87883787 -39.63671875 5.1484375 C-42.13636373 8.16453806 -44.59875169 11.14391814 -46.8125 14.375 C-47.20630859 14.91382813 -47.60011719 15.45265625 -48.00585938 16.0078125 C-51.58130496 21.15939791 -52.0763886 25.67014766 -51.875 31.8125 C-51.91625 32.864375 -51.9575 33.91625 -52 35 C-55 37 -55 37 -57.3125 36.5625 C-64.28425954 32.50915143 -68.52793187 25.02956611 -70.75 17.4375 C-71.07372809 14.28115116 -71.06215868 11.17009251 -71 8 C-69.15816091 11.3413895 -68.15861998 14.71034733 -67.125 18.375 C-65.66031074 23.27014569 -64.18382615 27.02021731 -61 31 C-58.86949981 28.99108973 -57.27143687 27.03109455 -55.765625 24.5234375 C-55.35973145 23.85650879 -54.95383789 23.18958008 -54.53564453 22.50244141 C-53.89925049 21.44935791 -53.89925049 21.44935791 -53.25 20.375 C-42.72009715 3.27400687 -42.72009715 3.27400687 -37 1 C-34.4858327 0.68644701 -32.05446881 0.46599653 -29.53125 0.33203125 C-28.4552655 0.26613045 -28.4552655 0.26613045 -27.35754395 0.19889832 C-25.8448919 0.10828112 -24.33197644 0.02197103 -22.81884766 -0.06030273 C-20.50732237 -0.18709834 -18.19717836 -0.32980615 -15.88671875 -0.47460938 C-14.41411777 -0.56084484 -12.94146267 -0.64616221 -11.46875 -0.73046875 C-10.78010864 -0.77310349 -10.09146729 -0.81573822 -9.38195801 -0.85966492 C-6.06636421 -1.03204052 -3.16751615 -1.06777575 0 0 Z " fill="#3D322A" transform="translate(307,265)"/>
<path d="M0 0 C0.99 0 1.98 0 3 0 C2.57992676 1.51775024 2.57992676 1.51775024 2.15136719 3.06616211 C-0.72778308 13.99213252 -1.64832914 24.29713184 -1.75 35.5625 C-1.77826651 37.17125438 -1.80820805 38.77998022 -1.83984375 40.38867188 C-1.91241911 44.25906062 -1.96275218 48.12911683 -2 52 C-1.34 52.33 -0.68 52.66 0 53 C-0.33 53.66 -0.66 54.32 -1 55 C-1.66 55 -2.32 55 -3 55 C-3.33 55.66 -3.66 56.32 -4 57 C-6.32295154 50.51625975 -6.42252756 44.28328816 -6.4375 37.4375 C-6.44064209 36.25687988 -6.44378418 35.07625977 -6.44702148 33.85986328 C-6.07589722 6.07589722 -6.07589722 6.07589722 0 0 Z " fill="#DAC6B3" transform="translate(91,105)"/>
<path d="M0 0 C-4.17902486 2.78601657 -8.67665964 4.89978308 -13.1640625 7.1484375 C-16.12384889 8.69529871 -16.12384889 8.69529871 -16.8984375 11.2265625 C-16.93195313 11.81179687 -16.96546875 12.39703125 -17 13 C-17.99 13 -18.98 13 -20 13 C-20.66 14.32 -21.32 15.64 -22 17 C-22.66 17 -23.32 17 -24 17 C-24.1546875 17.9590625 -24.1546875 17.9590625 -24.3125 18.9375 C-24.539375 19.618125 -24.76625 20.29875 -25 21 C-25.99 21.33 -26.98 21.66 -28 22 C-29.70855022 25.00007271 -29.70855022 25.00007271 -31 28 C-30.34 28 -29.68 28 -29 28 C-30 31 -31 34 -32 37 C-31.01 37.33 -30.02 37.66 -29 38 C-30.32 38 -31.64 38 -33 38 C-33.66 39.32 -34.32 40.64 -35 42 C-35.56866548 34.57575628 -34.61194727 28.5836497 -31 22 C-29.36328125 20.21484375 -29.36328125 20.21484375 -28 19 C-28.66 17.68 -29.32 16.36 -30 15 C-30.66 15 -31.32 15 -32 15 C-31.67 14.01 -31.34 13.02 -31 12 C-29.7625 11.773125 -28.525 11.54625 -27.25 11.3125 C-21.34581747 10.22264287 -16.86276092 7.08881952 -11.91796875 3.875 C-7.63823831 1.12497241 -5.13891381 -0.28549521 0 0 Z " fill="#D98A6F" transform="translate(123,65)"/>
<path d="M0 0 C1.77395508 0.42466497 3.54410631 0.8652409 5.3125 1.3125 C6.29863281 1.55613281 7.28476563 1.79976562 8.30078125 2.05078125 C11 3 11 3 14 6 C9.05 5.01 9.05 5.01 4 4 C3.62875 5.2375 3.2575 6.475 2.875 7.75 C-1.4131983 20.59427169 -6.83727849 29.73894118 -19 36 C-25.75327855 38.65307372 -33.3367292 39.3994436 -40.125 36.5 C-41.07375 36.005 -42.0225 35.51 -43 35 C-43.66 38.96 -44.32 42.92 -45 47 C-45.66 46.34 -46.32 45.68 -47 45 C-46.60917399 38.36712424 -44.52847775 32.09133277 -42 26 C-41.34 26 -40.68 26 -40 26 C-40.66 28.64 -41.32 31.28 -42 34 C-31.71536889 36.57115778 -22.92862063 35.37117644 -13.8125 30.1875 C-4.38465781 22.85473385 -1.48548153 13.29764333 1 2 C0.34 1.67 -0.32 1.34 -1 1 C-0.67 0.67 -0.34 0.34 0 0 Z " fill="#433A32" transform="translate(159,164)"/>
<path d="M0 0 C0.66 0.33 1.32 0.66 2 1 C2.192242 5.61380812 1.70442281 9.05733436 0.4453125 13.53515625 C-0.53142343 18.94147529 -0.13835727 24.5272015 0 30 C-0.99 29.67 -1.98 29.34 -3 29 C-3 29.99 -3 30.98 -3 32 C-3.66 32 -4.32 32 -5 32 C-5 33.32 -5 34.64 -5 36 C-5.99 36 -6.98 36 -8 36 C-7.9278125 35.38253906 -7.855625 34.76507813 -7.78125 34.12890625 C-7.32431863 29.95940751 -6.96225417 26.00080041 -7.25 21.8125 C-7.37229316 15.01300032 -4.54102158 8.22935291 -2 2 C-1.34 1.34 -0.68 0.68 0 0 Z " fill="#EFD6BD" transform="translate(104,124)"/>
<path d="M0 0 C1.57394531 -0.00386719 1.57394531 -0.00386719 3.1796875 -0.0078125 C6.125 0.125 6.125 0.125 8.07373047 0.61791992 C11.44985866 1.4525091 14.9132496 1.41827565 18.375 1.5625 C24.62430236 1.87544411 30.84414181 2.29664742 37.0625 3 C38.35027344 3.14179688 39.63804687 3.28359375 40.96484375 3.4296875 C44.1145689 4.1227049 45.24052377 4.57991402 47.125 7.125 C42.05504664 7.42323255 37.92339282 6.90857732 33 5.625 C23.18428383 3.21952252 13.79768777 3.25901844 4.125 6.125 C2.805 6.125 1.485 6.125 0.125 6.125 C0.125 5.465 0.125 4.805 0.125 4.125 C1.445 3.795 2.765 3.465 4.125 3.125 C-0.66268515 2.2998883 -4.36978603 2.1244885 -8.51953125 4.8828125 C-11.08388356 7.20687988 -13.49282447 9.61513667 -15.875 12.125 C-17.20721757 13.41781742 -18.54041589 14.70962571 -19.875 16 C-21.88836156 18.00368193 -23.27346416 19.72269624 -24.875 22.125 C-25.5625 19.8125 -25.5625 19.8125 -25.875 17.125 C-24.39632822 14.98914077 -22.85237942 14.11251436 -20.58203125 12.859375 C-17.5021843 10.88613972 -15.22313531 8.63153679 -12.6875 6 C-8.15019588 1.30623712 -6.53832592 -0.01598613 0 0 Z " fill="#302519" transform="translate(261.875,249.875)"/>
<path d="M0 0 C0.99 0 1.98 0 3 0 C2.34 2.97 1.68 5.94 1 9 C1.66 9 2.32 9 3 9 C3 9.99 3 10.98 3 12 C3.99 12.33 4.98 12.66 6 13 C7.50867974 13.58215359 9.00817513 14.18841993 10.5 14.8125 C11.2734375 15.12832031 12.046875 15.44414063 12.84375 15.76953125 C17.79707392 18.59615632 18.92685273 23.24611401 20.5 28.4375 C21.87076319 32.93448764 23.19383081 37.16371806 26 41 C29.07561246 42.35980881 29.07561246 42.35980881 32 43 C32 43.66 32 44.32 32 45 C29.875 45.4375 29.875 45.4375 27 45 C20.59084567 39.68176556 18.77514144 32.43824208 16.296875 24.765625 C15.17252175 20.9841261 15.17252175 20.9841261 13 18 C10.64312682 17.41706255 10.64312682 17.41706255 8 17.3125 C7.113125 17.24675781 6.22625 17.18101563 5.3125 17.11328125 C3.8762264 17.04292325 2.43799586 17 1 17 C0.773125 16.21625 0.54625 15.4325 0.3125 14.625 C-0.78125 11.78125 -0.78125 11.78125 -3.625 10.6875 C-4.40875 10.460625 -5.1925 10.23375 -6 10 C-6 9.34 -6 8.68 -6 8 C-5.195625 7.79375 -4.39125 7.5875 -3.5625 7.375 C-2.716875 6.92125 -1.87125 6.4675 -1 6 C-0.10169161 2.94727535 -0.10169161 2.94727535 0 0 Z " fill="#BB6D50" transform="translate(131,80)"/>
<path d="M0 0 C2.9375 0.375 2.9375 0.375 4.9375 2.375 C5.23828125 4.65234375 5.23828125 4.65234375 5.25 7.3125 C5.26675781 8.18777344 5.28351563 9.06304687 5.30078125 9.96484375 C4.9375 12.375 4.9375 12.375 3.609375 14.19921875 C1.9375 15.375 1.9375 15.375 -1.125 15.25 C-4.0625 14.375 -4.0625 14.375 -6.0625 11.375 C-6.39033949 7.76876565 -6.46593025 5.24909887 -4.9375 1.9375 C-3.0625 0.375 -3.0625 0.375 0 0 Z " fill="#C97E7B" transform="translate(130.0625,154.625)"/>
<path d="M0 0 C1.931143 2.8967145 2.83998956 5.18794063 3.91015625 8.47265625 C4.26013672 9.53677734 4.61011719 10.60089844 4.97070312 11.69726562 C5.33099609 12.80779297 5.69128906 13.91832031 6.0625 15.0625 C6.78129205 17.2621309 7.50128377 19.46137025 8.22265625 21.66015625 C8.53984619 22.63605713 8.85703613 23.61195801 9.18383789 24.61743164 C9.93305682 26.97713268 9.93305682 26.97713268 11 29 C11.06950541 30.54023996 11.08452357 32.08334988 11.0625 33.625 C11.05347656 34.44226563 11.04445313 35.25953125 11.03515625 36.1015625 C11.02355469 36.72804687 11.01195313 37.35453125 11 38 C11.71671875 38.25136719 12.4334375 38.50273437 13.171875 38.76171875 C16.25986346 40.11378 18.59814271 41.73627041 21.25 43.8125 C22.12140625 44.47894531 22.9928125 45.14539063 23.890625 45.83203125 C26.2583939 48.2655715 26.69772786 49.66919348 27 53 C26.360625 52.319375 25.72125 51.63875 25.0625 50.9375 C20.77077095 46.63350886 15.83096798 42.85290786 10.75 39.52734375 C9 38 9 38 8.5625 34.1875 C8.51351562 33.40890625 8.46453125 32.6303125 8.4140625 31.828125 C7.56127723 26.00344071 5.10868702 20.47013645 3 15 C0.36 15 -2.28 15 -5 15 C-4.67 14.34 -4.34 13.68 -4 13 C-1.4375 12.375 -1.4375 12.375 1 12 C0.84402344 11.21753906 0.68804687 10.43507812 0.52734375 9.62890625 C0.23537109 8.11103516 0.23537109 8.11103516 -0.0625 6.5625 C-0.25972656 5.55316406 -0.45695312 4.54382813 -0.66015625 3.50390625 C-0.77230469 2.67761719 -0.88445312 1.85132813 -1 1 C-0.67 0.67 -0.34 0.34 0 0 Z " fill="#4C423B" transform="translate(85,155)"/>
<path d="M0 0 C0.99 0 1.98 0 3 0 C3 0.66 3 1.32 3 2 C3.66 2 4.32 2 5 2 C4.79375 3.19625 4.5875 4.3925 4.375 5.625 C3.86418162 9.5576018 4.43265283 12.3121243 6 16 C5.34 16 4.68 16 4 16 C3.67 17.98 3.34 19.96 3 22 C2.01 22.33 1.02 22.66 0 23 C0.3403125 21.63875 0.3403125 21.63875 0.6875 20.25 C1.37651488 17.0269066 1.37651488 17.0269066 -0.49609375 15.11328125 C-2.41473023 12.41722324 -2.19780383 11.16460801 -1.75 7.9375 C-1.64171875 7.08027344 -1.5334375 6.22304687 -1.421875 5.33984375 C-1 3 -1 3 0 0 Z " fill="#EBD4BC" transform="translate(129,127)"/>
<path d="M0 0 C0 0.33 0 0.66 0 1 C-3.3 1.66 -6.6 2.32 -10 3 C-9.34 4.32 -8.68 5.64 -8 7 C-9.29009643 7.50403768 -10.58213789 8.00309926 -11.875 8.5 C-12.59429687 8.7784375 -13.31359375 9.056875 -14.0546875 9.34375 C-16 10 -16 10 -18 10 C-18 9.01 -18 8.02 -18 7 C-19.98 7 -21.96 7 -24 7 C-24.33 6.34 -24.66 5.68 -25 5 C-19.05112471 -1.51543484 -8.17213617 -0.15354744 0 0 Z " fill="#E4CCB6" transform="translate(327,252)"/>
<path d="M0 0 C0.8353125 0.495 0.8353125 0.495 1.6875 1 C4.99200004 2.42897299 7.5363915 1.66607856 11 1 C10.01 4.96 9.02 8.92 8 13 C6.989375 12.113125 5.97875 11.22625 4.9375 10.3125 C1.43570483 7.30381476 -2.20812903 4.63109415 -6 2 C-5.38125 1.855625 -4.7625 1.71125 -4.125 1.5625 C-1.96741678 1.06847775 -1.96741678 1.06847775 0 0 Z " fill="#EDD4BD" transform="translate(105,193)"/>
<path d="M0 0 C2.875 0.625 2.875 0.625 6 2 C7.50420193 5.21352231 8 7.45930077 8 11 C8.99 11.33 9.98 11.66 11 12 C11 12.99 11 13.98 11 15 C11.66 15.33 12.32 15.66 13 16 C13 14.68 13 13.36 13 12 C13.99 12 14.98 12 16 12 C14.63501982 16.91392865 12.23958284 18.38408718 8 21 C7.67 21.66 7.34 22.32 7 23 C6.34 23 5.68 23 5 23 C5.05800781 21.84242187 5.11601563 20.68484375 5.17578125 19.4921875 C5.22270265 17.95316552 5.26820026 16.41409967 5.3125 14.875 C5.35439453 14.11445312 5.39628906 13.35390625 5.43945312 12.5703125 C5.53121736 8.31245197 5.26200485 5.78315583 2.48046875 2.4453125 C1.66191406 1.63835937 0.84335938 0.83140625 0 0 Z " fill="#E08A6C" transform="translate(94,103)"/>
<path d="M0 0 C0.66 0.33 1.32 0.66 2 1 C2 16.18 2 31.36 2 47 C1.34 47 0.68 47 0 47 C-0.94994062 31.24116371 -1.48800582 15.75691873 0 0 Z " fill="#656565" transform="translate(61,313)"/>
<path d="M0 0 C1.65501347 4.03092237 0.20090077 7.30683771 -1.1875 11.1875 C-1.42162598 11.86240479 -1.65575195 12.53730957 -1.89697266 13.23266602 C-3.36417782 17.39674829 -4.95228479 21.4624319 -6.8203125 25.4609375 C-8.52679614 29.13383275 -10.13221764 32.84985539 -11.75 36.5625 C-12.36966902 37.98052235 -12.98945114 39.39849529 -13.609375 40.81640625 C-14.06828125 41.86699219 -14.5271875 42.91757813 -15 44 C-16.38584242 40.27711835 -15.59061363 38.22735093 -14.0859375 34.6328125 C-13.65659912 33.58802734 -13.22726074 32.54324219 -12.78491211 31.46679688 C-12.31964111 30.36400391 -11.85437012 29.26121094 -11.375 28.125 C-10.44459551 25.86801878 -9.51619616 23.61020988 -8.58984375 21.3515625 C-8.14108887 20.26133789 -7.69233398 19.17111328 -7.22998047 18.04785156 C-5.2658069 13.18069339 -3.53384343 8.24870813 -1.83984375 3.28125 C-1 1 -1 1 0 0 Z " fill="#414141" transform="translate(114,210)"/>
<path d="M0 0 C0.33 0 0.66 0 1 0 C0.96519531 0.92232422 0.96519531 0.92232422 0.9296875 1.86328125 C0.91164062 2.67152344 0.89359375 3.47976562 0.875 4.3125 C0.84019531 5.51326172 0.84019531 5.51326172 0.8046875 6.73828125 C0.84182678 9.28388576 0.84182678 9.28388576 3 12 C3.47128944 16.79144265 3.51298393 19.0289947 1.25 23.3125 C-0.73905833 25.68831968 -2.33112792 27.45033234 -5 29 C-5.99 29 -6.98 29 -8 29 C-8.33 31.97 -8.66 34.94 -9 38 C-9.66 37.34 -10.32 36.68 -11 36 C-10.828125 33.46875 -10.828125 33.46875 -10.25 30.5 C-10.06953125 29.5203125 -9.8890625 28.540625 -9.703125 27.53125 C-9 25 -9 25 -7 23 C-7 24.32 -7 25.64 -7 27 C-2.50673892 24.8140892 -0.66798455 22.72595623 1 18 C0.76446775 14.93808079 0.36902471 12.73804942 -1 10 C-4.02934491 9.34227572 -4.02934491 9.34227572 -7 9 C-7 8.67 -7 8.34 -7 8 C-5.35 8 -3.7 8 -2 8 C-1.7834375 6.576875 -1.7834375 6.576875 -1.5625 5.125 C-1 2 -1 2 0 0 Z " fill="#45352B" transform="translate(169,120)"/>
<path d="M0 0 C1.0730756 3.2192268 0.79946725 3.90206442 0 7 C0.33 7.66 0.66 8.32 1 9 C-0.32 9 -1.64 9 -3 9 C-3.27094482 9.59546631 -3.54188965 10.19093262 -3.82104492 10.80444336 C-4.98372682 12.96969462 -6.13826308 14.39614141 -7.86328125 16.12890625 C-8.42080078 16.68900391 -8.97832031 17.24910156 -9.55273438 17.82617188 C-10.13345703 18.39916016 -10.71417969 18.97214844 -11.3125 19.5625 C-11.88162109 20.13935547 -12.45074219 20.71621094 -13.03710938 21.31054688 C-16.14688964 24.40604571 -19.08064043 26.93369598 -23 29 C-23.33 27.02 -23.66 25.04 -24 23 C-23.21496094 22.64808594 -22.42992187 22.29617187 -21.62109375 21.93359375 C-10.38576825 16.65368005 -4.96271405 11.36621606 0 0 Z " fill="#271B16" transform="translate(158,156)"/>
<path d="M0 0 C2.64 0 5.28 0 8 0 C8.12375 0.61875 8.2475 1.2375 8.375 1.875 C8.87197356 4.19120832 8.87197356 4.19120832 11 6 C13.58354218 6.16687448 13.58354218 6.16687448 16 6 C12.28861183 8.94351476 9.560258 10.1403321 4.8125 10.0625 C2.9253125 10.0315625 2.9253125 10.0315625 1 10 C1.99 9.67 2.98 9.34 4 9 C4 8.34 4 7.68 4 7 C3.34 7 2.68 7 2 7 C0.875 3.25 0.875 3.25 2 1 C1.34 0.67 0.68 0.34 0 0 Z " fill="#F5DBC2" transform="translate(125,170)"/>
<path d="M0 0 C0 0.66 0 1.32 0 2 C-0.763125 1.938125 -1.52625 1.87625 -2.3125 1.8125 C-4.96736252 1.74731626 -4.96736252 1.74731626 -6.53125 3.1875 C-8.32110429 5.39625636 -9.18692156 7.53079173 -10.1875 10.1875 C-10.53167969 11.08855469 -10.87585938 11.98960938 -11.23046875 12.91796875 C-11.48441406 13.60503906 -11.73835938 14.29210937 -12 15 C-10.68 15 -9.36 15 -8 15 C-8 15.66 -8 16.32 -8 17 C-9.98 17 -11.96 17 -14 17 C-14.2475 17.886875 -14.495 18.77375 -14.75 19.6875 C-16.03934768 23.10427135 -17.59980129 25.2797748 -20 28 C-21.32 27.67 -22.64 27.34 -24 27 C-23.1028125 26.6596875 -23.1028125 26.6596875 -22.1875 26.3125 C-19.43648112 24.66188867 -18.47515363 22.8027919 -17 20 C-17.66 20 -18.32 20 -19 20 C-18 17 -18 17 -16.1328125 15.19921875 C-13.62120258 12.60940852 -12.39331325 10.07568109 -10.875 6.8125 C-7.94412486 0.53313797 -6.93231562 -0.15070251 0 0 Z " fill="#4A2C1C" transform="translate(127,95)"/>
<path d="M0 0 C-0.47859241 1.60433809 -0.95789558 3.20846416 -1.4375 4.8125 C-1.70433594 5.70582031 -1.97117187 6.59914062 -2.24609375 7.51953125 C-2.80387873 9.35473055 -3.39344575 11.18033726 -4 13 C-4.08021999 14.40824893 -4.10765977 15.81997231 -4.09765625 17.23046875 C-4.09443359 18.03291016 -4.09121094 18.83535156 -4.08789062 19.66210938 C-4.07951172 20.49548828 -4.07113281 21.32886719 -4.0625 22.1875 C-4.05798828 23.03248047 -4.05347656 23.87746094 -4.04882812 24.74804688 C-4.03705403 26.83206155 -4.0191189 28.91603977 -4 31 C-9.42116381 22.86825429 -6.92355708 9.34923932 -6 0 C-3 -1 -3 -1 0 0 Z " fill="#4E3E2E" transform="translate(102,128)"/>
<path d="M0 0 C0.99 0.33 1.98 0.66 3 1 C3 4.96 3 8.92 3 13 C2.01 13.33 1.02 13.66 0 14 C-1.66710346 15.49985609 -1.66710346 15.49985609 -3 17 C-4.56875857 12.13684842 -3.52020125 7.74729513 -2 3 C-1.34 2.01 -0.68 1.02 0 0 Z " fill="#ECD0B9" transform="translate(95,108)"/>
<path d="M0 0 C1.32 0 2.64 0 4 0 C4.02691685 2.45840605 4.04679802 4.91651882 4.0625 7.375 C4.07087891 8.07367188 4.07925781 8.77234375 4.08789062 9.4921875 C4.11328125 14.7734375 4.11328125 14.7734375 3 17 C2.34 17 1.68 17 1 17 C0.67 17.66 0.34 18.32 0 19 C-0.99 19 -1.98 19 -3 19 C-2.67 17.68 -2.34 16.36 -2 15 C-1.34 15 -0.68 15 0 15 C0 10.05 0 5.1 0 0 Z " fill="#A4654F" transform="translate(168,103)"/>
<path d="M0 0 C0.66 0.66 1.32 1.32 2 2 C1.41992188 2.64066406 0.83984375 3.28132813 0.2421875 3.94140625 C-0.53898437 4.80636719 -1.32015625 5.67132813 -2.125 6.5625 C-2.95257813 7.47773438 -3.78015625 8.39296875 -4.6328125 9.3359375 C-6.48191366 11.41693914 -8.25130987 13.52386645 -10 15.6875 C-14.46570117 20.94931503 -20.7108651 26.1249669 -27 29 C-29.13671875 28.5625 -29.13671875 28.5625 -31 28 C-30.46632812 27.74347656 -29.93265625 27.48695313 -29.3828125 27.22265625 C-22.6370387 23.75640224 -17.44389786 19.23625333 -12 14 C-11.00419922 13.06414062 -11.00419922 13.06414062 -9.98828125 12.109375 C-6.11004617 8.3741551 -3.00771133 4.46599561 0 0 Z " fill="#3B3B3B" transform="translate(251,301)"/>
<path d="M0 0 C0 3 0 3 -1.25 4.47265625 C-2.11625 5.25962891 -2.11625 5.25962891 -3 6.0625 C-12.09804644 14.86587287 -18.80060625 24.28981927 -21 37 C-21.66 37 -22.32 37 -23 37 C-20.64755611 20.49778167 -11.34256298 11.28091861 0 0 Z " fill="#3C3C3C" transform="translate(232,272)"/>
<path d="M0 0 C7.99976044 -0.20483028 15.26134446 -0.13480153 23 2 C23 2.33 23 2.66 23 3 C21.01432292 2.93489583 19.02864583 2.86979167 17.04296875 2.8046875 C14.68640281 2.86745538 14.68640281 2.86745538 12 5 C12.66 5.33 13.32 5.66 14 6 C13.34 6 12.68 6 12 6 C11.67 6.66 11.34 7.32 11 8 C10.01 8.495 10.01 8.495 9 9 C7.5 7.75 7.5 7.75 6 6 C6 4.68 6 3.36 6 2 C3.03 1.505 3.03 1.505 0 1 C0 0.67 0 0.34 0 0 Z " fill="#E1C8B1" transform="translate(274,253)"/>
<path d="M0 0 C-0.33 1.65 -0.66 3.3 -1 5 C-2.65 5.33 -4.3 5.66 -6 6 C-6 5.34 -6 4.68 -6 4 C-8.31 4.33 -10.62 4.66 -13 5 C-13 3.35 -13 1.7 -13 0 C-11.58800422 -0.39222105 -10.17007236 -0.76311059 -8.75 -1.125 C-7.96109375 -1.33382812 -7.1721875 -1.54265625 -6.359375 -1.7578125 C-3.5796929 -2.04314411 -2.34112451 -1.44977894 0 0 Z " fill="#564D46" transform="translate(333,255)"/>
<path d="M0 0 C3.61238888 0.24629924 5.46129061 0.45099024 8.04296875 3.08203125 C10.26919537 6.40137513 11.44674863 9.70569398 12.5625 13.5 C13.90784257 17.98447522 15.20290653 22.17871826 18 26 C21.07561246 27.35980881 21.07561246 27.35980881 24 28 C24 28.66 24 29.32 24 30 C21.875 30.4375 21.875 30.4375 19 30 C12.59084567 24.68176556 10.77514144 17.43824208 8.296875 9.765625 C7.17252175 5.9841261 7.17252175 5.9841261 5 3 C2.43717258 2.27034634 2.43717258 2.27034634 0 2 C0 1.34 0 0.68 0 0 Z " fill="#532310" transform="translate(139,95)"/>
<path d="M0 0 C0.33 0 0.66 0 1 0 C1.11069824 0.6612085 1.22139648 1.32241699 1.33544922 2.00366211 C1.8395191 4.9832344 2.35706769 7.96030753 2.875 10.9375 C3.04902344 11.97841797 3.22304687 13.01933594 3.40234375 14.09179688 C3.57636719 15.08115234 3.75039062 16.07050781 3.9296875 17.08984375 C4.08679199 18.00628662 4.24389648 18.92272949 4.40576172 19.86694336 C4.60186035 20.57085205 4.79795898 21.27476074 5 22 C5.66 22.33 6.32 22.66 7 23 C7.59355614 25.64860427 7.74209269 28.29197322 8 31 C6 27.25 6 27.25 6 25 C4.68 25.33 3.36 25.66 2 26 C-1.62870159 8.14350797 -1.62870159 8.14350797 0 0 Z " fill="#4C4946" transform="translate(230,246)"/>
<path d="M0 0 C2.0625 0.4375 2.0625 0.4375 4 1 C4 1.66 4 2.32 4 3 C3.01 3.495 3.01 3.495 2 4 C1.94581674 6.08304538 1.90712449 8.16649768 1.875 10.25 C1.85179688 11.41015625 1.82859375 12.5703125 1.8046875 13.765625 C1.99289353 16.88231687 2.50575039 18.34891199 4 21 C3.625 23.25 3.625 23.25 3 25 C2.67 24.01 2.34 23.02 2 22 C1.34 22 0.68 22 0 22 C-0.33 23.65 -0.66 25.3 -1 27 C-1.33 27 -1.66 27 -2 27 C-2.16143498 18.92825112 -2.16143498 18.92825112 -1.5 15.125 C-0.86446562 11.1529101 -0.97581694 7.30747798 -1.0625 3.29296875 C-1 1 -1 1 0 0 Z " fill="#EFD6BD" transform="translate(107,122)"/>
<path d="M0 0 C4.54053682 -0.36324295 8.00585234 -0.46783419 12.1875 1.5 C19.36512856 7.88011428 23.72728895 16.00959533 27 25 C26.67 25.66 26.34 26.32 26 27 C23.44019989 23.96762141 21.91966798 20.78902226 20.29858398 17.21118164 C16.39463693 8.38967239 16.39463693 8.38967239 8.96484375 2.6171875 C5.9377302 1.66632479 3.17099991 1.19818749 0 1 C0 0.67 0 0.34 0 0 Z " fill="#47291F" transform="translate(148,73)"/>
<path d="M0 0 C1.00289063 0.10183594 2.00578125 0.20367187 3.0390625 0.30859375 C3.80992187 0.39238281 4.58078125 0.47617188 5.375 0.5625 C5.375 0.8925 5.375 1.2225 5.375 1.5625 C4.69695312 1.53027344 4.01890625 1.49804688 3.3203125 1.46484375 C-4.35438244 1.56051169 -7.96013699 3.77263699 -13.328125 9.140625 C-14.08609375 9.93984375 -14.8440625 10.7390625 -15.625 11.5625 C-16.95725404 12.85527985 -18.29046153 14.14707851 -19.625 15.4375 C-21.63836156 17.44118193 -23.02346416 19.16019624 -24.625 21.5625 C-25.3125 19.25 -25.3125 19.25 -25.625 16.5625 C-24.14632822 14.42664077 -22.60237942 13.55001436 -20.33203125 12.296875 C-17.2521843 10.32363972 -14.97313531 8.06903679 -12.4375 5.4375 C-6.52151531 -0.68248416 -6.52151531 -0.68248416 0 0 Z " fill="#55473C" transform="translate(261.625,250.4375)"/>
<path d="M0 0 C0.66 0 1.32 0 2 0 C1.22461538 8.01230769 1.22461538 8.01230769 0.53662109 11.03759766 C-1.16581413 18.5521684 -1.4350486 25.93988313 -1.625 33.625 C-1.66367188 34.91535156 -1.70234375 36.20570313 -1.7421875 37.53515625 C-1.83566342 40.6899687 -1.92142313 43.84478727 -2 47 C-2.33 47 -2.66 47 -3 47 C-3.07552747 42.71739885 -3.12923302 38.43517522 -3.16479492 34.15209961 C-3.17965701 32.70248646 -3.19995267 31.25291635 -3.22631836 29.8034668 C-3.40957228 19.4514168 -2.43944938 10.08507426 0 0 Z " fill="#2E251C" transform="translate(87,109)"/>
<path d="M0 0 C1.72274487 2.58411731 2.68895522 4.54902656 3.6875 7.4375 C3.95949219 8.19933594 4.23148438 8.96117188 4.51171875 9.74609375 C5.04729142 12.21829721 4.80445309 13.62983284 4 16 C3.9175 15.38125 3.835 14.7625 3.75 14.125 C3.19159652 11.90527832 3.19159652 11.90527832 1.375 10.8125 C-1.71421737 9.75566248 -4.76398137 9.37338677 -8 9 C-8 8.34 -8 7.68 -8 7 C-4.535 6.505 -4.535 6.505 -1 6 C-0.67 4.02 -0.34 2.04 0 0 Z " fill="#DFC7B0" transform="translate(147,103)"/>
<path d="M0 0 C2.9375 0.375 2.9375 0.375 4.9375 2.375 C5.23828125 4.65234375 5.23828125 4.65234375 5.25 7.3125 C5.26675781 8.18777344 5.28351563 9.06304687 5.30078125 9.96484375 C4.9375 12.375 4.9375 12.375 3.609375 14.19921875 C1.9375 15.375 1.9375 15.375 -1.125 15.25 C-4.0625 14.375 -4.0625 14.375 -6.0625 11.375 C-6.39033949 7.76876565 -6.46593025 5.24909887 -4.9375 1.9375 C-3.0625 0.375 -3.0625 0.375 0 0 Z M-2.0625 1.375 C-4.22762323 3.12975062 -4.22762323 3.12975062 -4.29296875 5.25 C-4.27878906 5.95125 -4.26460938 6.6525 -4.25 7.375 C-4.24355469 8.07625 -4.23710938 8.7775 -4.23046875 9.5 C-4.16956133 11.46556373 -4.16956133 11.46556373 -3.0625 13.375 C-0.64630177 13.62530977 -0.64630177 13.62530977 1.9375 13.375 C4.25032587 9.90576119 4.36228586 8.45294425 3.9375 4.375 C2.74854764 2.43467596 2.74854764 2.43467596 0.9375 1.375 C-0.0525 1.375 -1.0425 1.375 -2.0625 1.375 Z " fill="#4C2317" transform="translate(130.0625,154.625)"/>
<path d="M0 0 C-4.08239507 2.72159671 -8.42623834 4.87989909 -12.7734375 7.1484375 C-16.01468991 8.88035725 -16.01468991 8.88035725 -18.58203125 11.1796875 C-21.3422707 13.25767067 -22.90396842 13.56821165 -26.3125 13.75 C-27.63701172 13.83507812 -27.63701172 13.83507812 -28.98828125 13.921875 C-29.98408203 13.96054688 -29.98408203 13.96054688 -31 14 C-31 13.34 -31 12.68 -31 12 C-29.783125 11.835 -28.56625 11.67 -27.3125 11.5 C-21.45087971 10.23463435 -16.86955397 7.0932346 -11.91796875 3.875 C-7.63823831 1.12497241 -5.13891381 -0.28549521 0 0 Z " fill="#472A1D" transform="translate(123,65)"/>
<path d="M0 0 C0.99 0 1.98 0 3 0 C3 6.27 3 12.54 3 19 C2.01 19 1.02 19 0 19 C0 12.73 0 6.46 0 0 Z " fill="#2D2D2D" transform="translate(74,56)"/>
<path d="M0 0 C1.65 0 3.3 0 5 0 C6.07310858 3.27185553 5.89263102 5.42947592 5.0625 8.75 C4.86785156 9.54921875 4.67320312 10.3484375 4.47265625 11.171875 C4.23869141 12.07679687 4.23869141 12.07679687 4 13 C3.34 13 2.68 13 2 13 C2 12.34 2 11.68 2 11 C1.34 11 0.68 11 0 11 C-0.07037402 8.46653542 -0.07102638 6.2762137 0.5625 3.8125 C1.22642103 1.91567768 1.22642103 1.91567768 0 0 Z " fill="#F48A5E" transform="translate(132,78)"/>
<path d="M0 0 C0.87785156 0.08765625 1.75570313 0.1753125 2.66015625 0.265625 C4.9375 0.75 4.9375 0.75 6.9375 2.75 C-3.40057949 3.9055538 -13.67812308 3.84776087 -24.0625 3.75 C-24.0625 3.42 -24.0625 3.09 -24.0625 2.75 C-22.38220703 2.67652344 -22.38220703 2.67652344 -20.66796875 2.6015625 C-19.19528797 2.52652144 -17.72263293 2.45097418 -16.25 2.375 C-15.51201172 2.3440625 -14.77402344 2.313125 -14.01367188 2.28125 C-8.6531458 1.99018071 -5.29601811 -0.59277964 0 0 Z " fill="#C7B8AA" transform="translate(296.0625,262.25)"/>
<path d="M0 0 C0.66 0.33 1.32 0.66 2 1 C2.22577402 6.4185766 1.46670113 10.77487721 0 16 C-0.28875 15.360625 -0.5775 14.72125 -0.875 14.0625 C-1.82823451 11.84793921 -1.82823451 11.84793921 -4 11 C-3.71758359 9.53984709 -3.42373386 8.08190207 -3.125 6.625 C-2.96257812 5.81289062 -2.80015625 5.00078125 -2.6328125 4.1640625 C-2 2 -2 2 0 0 Z " fill="#EDD4BB" transform="translate(104,124)"/>
<path d="M0 0 C6.43985624 -0.67081836 9.83783423 1.24569762 15 5 C13.68 5.33 12.36 5.66 11 6 C11 5.34 11 4.68 11 4 C7.68955197 2.89651732 5.34493684 3.00555932 2 4 C1.67 4.66 1.34 5.32 1 6 C-1.0625 6.625 -1.0625 6.625 -3 7 C-3.33 6.01 -3.66 5.02 -4 4 C-2.68 3.67 -1.36 3.34 0 3 C0 2.01 0 1.02 0 0 Z " fill="#DE8B70" transform="translate(148,74)"/>
<path d="M0 0 C0.66 0.99 1.32 1.98 2 3 C-3.04097484 5.44847349 -5.8445689 4.71847703 -11 3 C-13.29453495 3.09406754 -13.29453495 3.09406754 -15.6875 3.4375 C-16.49574219 3.53933594 -17.30398438 3.64117187 -18.13671875 3.74609375 C-19.05904297 3.87177734 -19.05904297 3.87177734 -20 4 C-19.67 3.34 -19.34 2.68 -19 2 C-13.27808174 0.16081199 -5.9653569 -1.19564265 0 0 Z " fill="#4E463D" transform="translate(328,250)"/>
<path d="M0 0 C0.99 0.495 0.99 0.495 2 1 C2 2.98 2 4.96 2 7 C2.99 7.33 3.98 7.66 5 8 C6.1875 11.0625 6.1875 11.0625 7 14 C7.99 14 8.98 14 10 14 C10.33 15.32 10.66 16.64 11 18 C8.8125 18 8.8125 18 6 17 C1.39613995 12.00079463 0.16892635 6.63419857 0 0 Z " fill="#DC8B72" transform="translate(151,105)"/>
<path d="M0 0 C0.66 0 1.32 0 2 0 C1.34 2.64 0.68 5.28 0 8 C2.31 8.66 4.62 9.32 7 10 C7 10.33 7 10.66 7 11 C3.28400809 11.20086443 2.22791555 11.1519437 -1 9 C-1.66 12.96 -2.32 16.92 -3 21 C-3.66 20.34 -4.32 19.68 -5 19 C-4.60917399 12.36712424 -2.52847775 6.09133277 0 0 Z " fill="#3C2E22" transform="translate(117,190)"/>
<path d="M0 0 C0.66 1.98 1.32 3.96 2 6 C0.35 6 -1.3 6 -3 6 C-3 5.01 -3 4.02 -3 3 C-5.31 3 -7.62 3 -10 3 C-10 2.01 -10 1.02 -10 0 C-6.30458414 -0.95024979 -3.69541586 -0.95024979 0 0 Z " fill="#DE9577" transform="translate(130,91)"/>
<path d="M0 0 C0.7425 0.495 0.7425 0.495 1.5 1 C7.01416969 3.20566788 13.28516296 1.95247284 19 1 C19.33 1.66 19.66 2.32 20 3 C13.99198599 5.46482626 8.12905333 6.0217317 1.9375 4 C1.298125 3.67 0.65875 3.34 0 3 C0 2.01 0 1.02 0 0 Z " fill="#585858" transform="translate(201,328)"/>
<path d="M0 0 C0.66 0 1.32 0 2 0 C1.84015625 0.56589844 1.6803125 1.13179687 1.515625 1.71484375 C0.98807538 4.05284773 0.79861268 6.16832549 0.75 8.5625 C0.72421875 9.32691406 0.6984375 10.09132812 0.671875 10.87890625 C1.08041803 13.5198451 2.10783208 14.20370193 4 16 C3.6875 18.6875 3.6875 18.6875 3 21 C2.01 21.33 1.02 21.66 0 22 C0.3403125 20.63875 0.3403125 20.63875 0.6875 19.25 C1.37689622 16.02707274 1.37689622 16.02707274 -0.49609375 14.1171875 C-2.42163311 11.4064282 -2.19538153 10.11853938 -1.75 6.875 C-1.64171875 6.00617188 -1.5334375 5.13734375 -1.421875 4.2421875 C-1 2 -1 2 0 0 Z " fill="#4C3624" transform="translate(129,128)"/>
<path d="M0 0 C0.33 0 0.66 0 1 0 C1.33 4.29 1.66 8.58 2 13 C1.67 12.34 1.34 11.68 1 11 C0.01 11.495 0.01 11.495 -1 12 C-1.65772428 15.02934491 -1.65772428 15.02934491 -2 18 C-2.33 18 -2.66 18 -3 18 C-3.2525244 11.9394143 -2.76590968 6.81711423 -1 1 C-0.67 0.67 -0.34 0.34 0 0 Z " fill="#FDDFC1" transform="translate(94,127)"/>
<path d="M0 0 C0 1.32 0 2.64 0 4 C-0.99 4.33 -1.98 4.66 -3 5 C-4.20175547 6.72138304 -4.20175547 6.72138304 -5.125 8.8125 C-5.45757812 9.49957031 -5.79015625 10.18664062 -6.1328125 10.89453125 C-6.96581322 12.91699695 -7.53024571 14.86693207 -8 17 C-8.66 17 -9.32 17 -10 17 C-9.53262113 11.07986759 -7.03791739 6.02533998 -4 1 C-2 0 -2 0 0 0 Z " fill="#A05335" transform="translate(148,73)"/>
<path d="M0 0 C1.32 0 2.64 0 4 0 C4 2.31 4 4.62 4 7 C3.01 7.495 3.01 7.495 2 8 C-0.625 7.0625 -0.625 7.0625 -3 6 C-2.67 4.68 -2.34 3.36 -2 2 C-1.34 2 -0.68 2 0 2 C0 1.34 0 0.68 0 0 Z " fill="#080908" transform="translate(250,294)"/>
<path d="M0 0 C1.0730756 3.2192268 0.79946725 3.90206442 0 7 C0.33 7.66 0.66 8.32 1 9 C-0.32 9 -1.64 9 -3 9 C-3.25523437 9.58265625 -3.51046875 10.1653125 -3.7734375 10.765625 C-5.11741087 13.21388223 -6.61810296 14.81743248 -8.625 16.75 C-9.57246094 17.67039063 -9.57246094 17.67039063 -10.5390625 18.609375 C-11.02117187 19.06828125 -11.50328125 19.5271875 -12 20 C-12.66 19.34 -13.32 18.68 -14 18 C-13.49210938 17.62230469 -12.98421875 17.24460938 -12.4609375 16.85546875 C-6.48836393 12.07964681 -3.27356545 6.85712763 0 0 Z " fill="#372618" transform="translate(158,156)"/>
<path d="M0 0 C1.98 0 3.96 0 6 0 C5.67 0.66 5.34 1.32 5 2 C5.66 2.33 6.32 2.66 7 3 C7.33 2.34 7.66 1.68 8 1 C9 2 9 2 9.0625 4.5625 C9.041875 5.366875 9.02125 6.17125 9 7 C7.02 7.99 7.02 7.99 5 9 C5.33 7.68 5.66 6.36 6 5 C5.34 5 4.68 5 4 5 C4 4.34 4 3.68 4 3 C2.35 3.66 0.7 4.32 -1 5 C-0.67 3.35 -0.34 1.7 0 0 Z " fill="#F7E1CA" transform="translate(161,130)"/>
<path d="M0 0 C2.875 0.625 2.875 0.625 6 2 C8.19581393 6.67314247 8.11174563 10.85178509 7.625 15.875 C7.56828125 16.56335938 7.5115625 17.25171875 7.453125 17.9609375 C7.31307172 19.64157689 7.15807755 21.32096005 7 23 C6.34 23 5.68 23 5 23 C5.05800781 21.84242187 5.11601563 20.68484375 5.17578125 19.4921875 C5.22270265 17.95316552 5.26820026 16.41409967 5.3125 14.875 C5.35439453 14.11445312 5.39628906 13.35390625 5.43945312 12.5703125 C5.53121736 8.31245197 5.26200485 5.78315583 2.48046875 2.4453125 C1.66191406 1.63835937 0.84335938 0.83140625 0 0 Z " fill="#D48B70" transform="translate(94,103)"/>
<path d="M0 0 C0.89203125 0.00902344 1.7840625 0.01804688 2.703125 0.02734375 C3.37859375 0.03894531 4.0540625 0.05054688 4.75 0.0625 C4.75 0.3925 4.75 0.7225 4.75 1.0625 C-1.01081841 2.3607126 -6.33739655 3.31956972 -12.25 3.0625 C-12.58 3.7225 -12.91 4.3825 -13.25 5.0625 C-14.9 4.7325 -16.55 4.4025 -18.25 4.0625 C-17.92 3.0725 -17.59 2.0825 -17.25 1.0625 C-14.3203125 1.11132812 -14.3203125 1.11132812 -11.390625 1.16015625 C-9.26266285 1.13654348 -9.26266285 1.13654348 -7.3125 0.5625 C-4.82017595 -0.04169977 -2.5612078 -0.0337001 0 0 Z " fill="#988F86" transform="translate(322.25,251.9375)"/>
<path d="M0 0 C7.05505943 1.75125589 12.90475989 4.71141372 18 10 C18.75 12.22265625 18.75 12.22265625 19 14 C18.0925 13.154375 17.185 12.30875 16.25 11.4375 C12.00662693 7.76282641 7.27025188 5.13671669 2.37890625 2.41796875 C1.59386719 1.95003906 0.80882812 1.48210937 0 1 C0 0.67 0 0.34 0 0 Z " fill="#3F3F3F" transform="translate(199,178)"/>
<path d="M0 0 C0.66 0.33 1.32 0.66 2 1 C0.6744419 4.62276315 -0.94346955 7.63505348 -3.125 10.8125 C-3.93324219 11.99779297 -3.93324219 11.99779297 -4.7578125 13.20703125 C-5.16773438 13.79871094 -5.57765625 14.39039063 -6 15 C-6.99 14.01 -7.98 13.02 -9 12 C-7.68 12 -6.36 12 -5 12 C-5 9.69 -5 7.38 -5 5 C-4.34 5 -3.68 5 -3 5 C-1.3553326 2.53673288 -1.3553326 2.53673288 0 0 Z " fill="#E5D1BD" transform="translate(253,282)"/>
<path d="M0 0 C1.79341438 4.16673521 0.01173384 7.74663341 -1.4375 11.75 C-1.68048828 12.44738281 -1.92347656 13.14476562 -2.17382812 13.86328125 C-2.77310248 15.57885098 -3.38529885 17.28989715 -4 19 C-5.14453125 17.44921875 -5.14453125 17.44921875 -6 15 C-5.35543142 12.44797509 -4.65205263 10.23503964 -3.6875 7.8125 C-3.32881836 6.85053711 -3.32881836 6.85053711 -2.96289062 5.86914062 C-1.18849649 1.18849649 -1.18849649 1.18849649 0 0 Z " fill="#4B4B4B" transform="translate(114,210)"/>
<path d="M0 0 C3.27162323 2.71134524 4.7846168 6.30409316 6.5625 10.0625 C8.7610034 14.87047778 8.7610034 14.87047778 12 19 C11.01 19.99 10.02 20.98 9 22 C8.68546875 21.2265625 8.3709375 20.453125 8.046875 19.65625 C6.06001273 14.82075386 4.0813345 10.02538817 1.6875 5.375 C0 2 0 2 0 0 Z " fill="#392718" transform="translate(108,159)"/>
<path d="M0 0 C1.32 0.33 2.64 0.66 4 1 C4 1.99 4 2.98 4 4 C6.33075929 3.04134491 6.33075929 3.04134491 8 0 C7.67 2.31 7.34 4.62 7 7 C4.69 7 2.38 7 0 7 C0 4.69 0 2.38 0 0 Z " fill="#C2A890" transform="translate(163,134)"/>
<path d="M0 0 C2.125 0.375 2.125 0.375 4 1 C4 2.65 4 4.3 4 6 C2.35 6.33 0.7 6.66 -1 7 C-1.625 4.625 -1.625 4.625 -2 2 C-1.34 1.34 -0.68 0.68 0 0 Z " fill="#2B1B12" transform="translate(143,129)"/>
<path d="M0 0 C0.33 0 0.66 0 1 0 C0.67 2.64 0.34 5.28 0 8 C-1.98 8.33 -3.96 8.66 -6 9 C-6 8.34 -6 7.68 -6 7 C-6.99 6.67 -7.98 6.34 -9 6 C-5.25 4.875 -5.25 4.875 -3 6 C-3 4.68 -3 3.36 -3 2 C-2.01 2 -1.02 2 0 2 C0 1.34 0 0.68 0 0 Z " fill="#D78E6F" transform="translate(167,120)"/>
<path d="M0 0 C0 0.66 0 1.32 0 2 C-1.1446875 1.9071875 -1.1446875 1.9071875 -2.3125 1.8125 C-4.96736252 1.74731626 -4.96736252 1.74731626 -6.53125 3.1875 C-8.32110429 5.39625636 -9.18692156 7.53079173 -10.1875 10.1875 C-10.53167969 11.08855469 -10.87585938 11.98960938 -11.23046875 12.91796875 C-11.61138672 13.94857422 -11.61138672 13.94857422 -12 15 C-12.66 15 -13.32 15 -14 15 C-10.96774194 5.12903226 -10.96774194 5.12903226 -8 1 C-5.29120665 -0.35439668 -2.99066732 -0.06501451 0 0 Z " fill="#4C2112" transform="translate(127,95)"/>
<path d="M0 0 C3.69297856 1.32921037 6.62142186 2.94506923 9.75 5.3125 C10.52859375 5.88613281 11.3071875 6.45976562 12.109375 7.05078125 C14.33789723 9.34836925 14.67596734 10.8622837 15 14 C14.38125 13.34 13.7625 12.68 13.125 12 C9.70354631 8.54879454 5.84406088 5.64823415 2.01171875 2.671875 C1.34785156 2.12015625 0.68398437 1.5684375 0 1 C0 0.67 0 0.34 0 0 Z " fill="#463D35" transform="translate(97,194)"/>
<path d="M0 0 C1.32 0 2.64 0 4 0 C4.33 1.98 4.66 3.96 5 6 C2.36 6.33 -0.28 6.66 -3 7 C-3 5.68 -3 4.36 -3 3 C-2.01 2.67 -1.02 2.34 0 2 C0 1.34 0 0.68 0 0 Z " fill="#FDE0C4" transform="translate(134,96)"/>
<path d="M0 0 C3.09592835 3.5087188 4.74194623 6.49197399 6 11 C3 10 3 10 1 7 C-0.31337396 5.9739266 -1.64664105 4.97272675 -3 4 C-3.66 3.34 -4.32 2.68 -5 2 C-3.35 1.34 -1.7 0.68 0 0 Z " fill="#EDD1B8" transform="translate(105,156)"/>
<path d="M0 0 C1.32 0 2.64 0 4 0 C4.33 1.65 4.66 3.3 5 5 C3.02 5.99 3.02 5.99 1 7 C0.34 6.34 -0.32 5.68 -1 5 C-0.625 2.375 -0.625 2.375 0 0 Z " fill="#1F120B" transform="translate(112,129)"/>
<path d="M0 0 C1.5 1.0625 1.5 1.0625 3 3 C3.1875 6.6875 3.1875 6.6875 3 10 C2.01 10.33 1.02 10.66 0 11 C0 10.34 0 9.68 0 9 C0.66 9 1.32 9 2 9 C2 8.34 2 7.68 2 7 C0.68 7 -0.64 7 -2 7 C-1.125 1.125 -1.125 1.125 0 0 Z " fill="#E7CFB8" transform="translate(117,103)"/>
<path d="M0 0 C0.33 0 0.66 0 1 0 C1.66 2.31 2.32 4.62 3 7 C3.66 6.34 4.32 5.68 5 5 C5.66 5.66 6.32 6.32 7 7 C6.01 7.495 6.01 7.495 5 8 C3.86649466 10.01669827 3.86649466 10.01669827 3 12 C2.34 11.67 1.68 11.34 1 11 C0.67 11.99 0.34 12.98 0 14 C0 9.38 0 4.76 0 0 Z " fill="#564033" transform="translate(86,98)"/>
<path d="M0 0 C6.69299901 -0.49374583 12.54509999 -0.33183236 18 4 C19.21875 6.140625 19.21875 6.140625 20 8 C17.46217693 6.78184493 15.18711645 5.47401653 12.8125 3.9375 C8.71799863 1.54310681 4.67029357 1.2118047 0 1 C0 0.67 0 0.34 0 0 Z " fill="#442418" transform="translate(124,64)"/>
<path d="M0 0 C1.65 0.33 3.3 0.66 5 1 C5 3.64 5 6.28 5 9 C4.67 9 4.34 9 4 9 C3.67 6.69 3.34 4.38 3 2 C2.38125 2.495 1.7625 2.99 1.125 3.5 C-1 5 -1 5 -3 5 C-3.66 6.32 -4.32 7.64 -5 9 C-5 7.02 -5 5.04 -5 3 C-3.68 3 -2.36 3 -1 3 C-0.67 2.01 -0.34 1.02 0 0 Z " fill="#2C160C" transform="translate(102,123)"/>
<path d="M0 0 C1.08667969 0.11988281 2.17335937 0.23976563 3.29296875 0.36328125 C4.12441406 0.47027344 4.95585937 0.57726562 5.8125 0.6875 C5.8125 1.0175 5.8125 1.3475 5.8125 1.6875 C5.22082031 1.72488281 4.62914062 1.76226562 4.01953125 1.80078125 C-0.93051592 2.21261225 -3.95167121 2.98127605 -8.1875 5.6875 C-11 5.875 -11 5.875 -13.1875 5.6875 C-12.589375 5.254375 -11.99125 4.82125 -11.375 4.375 C-9.19770114 2.84376422 -9.19770114 2.84376422 -7.9375 1.0625 C-5.2863417 -1.02055295 -3.26969822 -0.3867385 0 0 Z " fill="#B07B63" transform="translate(127.1875,64.3125)"/>
<path d="M0 0 C2.31 0 4.62 0 7 0 C7 0.99 7 1.98 7 3 C4.35261084 4.4606285 3.10551666 5 0 5 C0 3.35 0 1.7 0 0 Z " fill="#DDC8B2" transform="translate(320,255)"/>
<path d="M0 0 C0 0.66 0 1.32 0 2 C-0.60585937 2.24492187 -1.21171875 2.48984375 -1.8359375 2.7421875 C-4.39688016 4.23067764 -5.19909663 5.55837394 -6.625 8.125 C-7.8515625 10.3203125 -7.8515625 10.3203125 -9 12 C-9.66 12 -10.32 12 -11 12 C-9.02241502 6.06724506 -6.672377 0 0 0 Z " fill="#3D3D3E" transform="translate(95,191)"/>
<path d="M0 0 C0.66 0 1.32 0 2 0 C4.32590854 3.63423209 4.16265833 6.77088331 4 11 C3.67 11 3.34 11 3 11 C3 9.02 3 7.04 3 5 C1.02 5.66 -0.96 6.32 -3 7 C-2.01 4.69 -1.02 2.38 0 0 Z " fill="#292421" transform="translate(251,289)"/>
<path d="M0 0 C0.66 0 1.32 0 2 0 C1.49452628 4.08055151 -0.50088882 5.66272295 -3.5625 8.25 C-4.38878906 8.95640625 -5.21507812 9.6628125 -6.06640625 10.390625 C-6.70449219 10.92171875 -7.34257812 11.4528125 -8 12 C-8.66 11.67 -9.32 11.34 -10 11 C-9.44570312 10.45730469 -8.89140625 9.91460937 -8.3203125 9.35546875 C-7.23363281 8.28232422 -7.23363281 8.28232422 -6.125 7.1875 C-5.40570313 6.47980469 -4.68640625 5.77210938 -3.9453125 5.04296875 C-1.84641063 2.95600806 -1.84641063 2.95600806 0 0 Z " fill="#DFDFDF" transform="translate(234,271)"/>
<path d="M0 0 C0.70511719 0.31710938 1.41023437 0.63421875 2.13671875 0.9609375 C5.12505879 2.04538286 7.65069658 2.3964359 10.8125 2.625 C12.27623047 2.73714844 12.27623047 2.73714844 13.76953125 2.8515625 C14.50558594 2.90054688 15.24164063 2.94953125 16 3 C16 3.33 16 3.66 16 4 C8.08 4.495 8.08 4.495 0 5 C0 3.35 0 1.7 0 0 Z " fill="#C7886C" transform="translate(139,69)"/>
<path d="M0 0 C1.93681161 -0.08107583 3.8745934 -0.13922475 5.8125 -0.1875 C6.89144531 -0.22230469 7.97039062 -0.25710937 9.08203125 -0.29296875 C12 0 12 0 13.88671875 1.51171875 C14.25410156 2.00285156 14.62148437 2.49398437 15 3 C14.34 3.66 13.68 4.32 13 5 C13 4.34 13 3.68 13 3 C12.195625 3.020625 11.39125 3.04125 10.5625 3.0625 C8 3 8 3 7 2 C4.67182036 1.63239269 2.3381615 1.29758419 0 1 C0 0.67 0 0.34 0 0 Z " fill="#DB8D6F" transform="translate(124,66)"/>
<path d="M0 0 C-0.99 0.33 -1.98 0.66 -3 1 C-3 1.66 -3 2.32 -3 3 C-8.75 3.125 -8.75 3.125 -11 2 C-8.70961481 -2.58077038 -4.27972864 -0.62125093 0 0 Z " fill="#FBE0C9" transform="translate(297,256)"/>
<path d="M0 0 C3.85914066 5.78871099 4.26679513 10.19672424 4 17 C3.67 17 3.34 17 3 17 C3 14.69 3 12.38 3 10 C2.34 10 1.68 10 1 10 C0.67 6.7 0.34 3.4 0 0 Z " fill="#D2BDA9" transform="translate(114,173)"/>
<path d="M0 0 C0.66 0.66 1.32 1.32 2 2 C-1.3 5.63 -4.6 9.26 -8 13 C-8 9.00717059 -6.52191924 7.84668408 -4 4.8125 C-3.2575 3.91144531 -2.515 3.01039063 -1.75 2.08203125 C-1.1725 1.39496094 -0.595 0.70789063 0 0 Z " fill="#353636" transform="translate(251,301)"/>
<path d="M0 0 C1.65 0.33 3.3 0.66 5 1 C5 2.65 5 4.3 5 6 C4.67 5.01 4.34 4.02 4 3 C3.34 3 2.68 3 2 3 C2 3.66 2 4.32 2 5 C0.35 5 -1.3 5 -3 5 C-2.01 3.35 -1.02 1.7 0 0 Z " fill="#E2CAB2" transform="translate(155,165)"/>
<path d="M0 0 C1.45903258 0.30921884 2.91720722 0.62248799 4.375 0.9375 C5.18710938 1.11152344 5.99921875 1.28554687 6.8359375 1.46484375 C9 2 9 2 11 3 C11 3.66 11 4.32 11 5 C6.80530429 4.40075776 2.99000166 3.42500059 -1 2 C-0.67 1.34 -0.34 0.68 0 0 Z " fill="#535353" transform="translate(173,169)"/>
<path d="M0 0 C0.99 0.33 1.98 0.66 3 1 C3 1.66 3 2.32 3 3 C3.33 3.66 3.66 4.32 4 5 C1.36 5.33 -1.28 5.66 -4 6 C-2.84826645 3.53199953 -1.95216435 1.95216435 0 0 Z " fill="#E9CDB3" transform="translate(122,96)"/>
<path d="M0 0 C0.99 0.33 1.98 0.66 3 1 C2.67 1.66 2.34 2.32 2 3 C1.01 3.33 0.02 3.66 -1 4 C-1.33 4.99 -1.66 5.98 -2 7 C-3.32 6.67 -4.64 6.34 -6 6 C-2.25 1.125 -2.25 1.125 0 0 Z " fill="#EDD5BF" transform="translate(255,253)"/>
<path d="M0 0 C0.33 0 0.66 0 1 0 C1.22331199 1.58129029 1.42804644 3.16521089 1.625 4.75 C1.74101562 5.63171875 1.85703125 6.5134375 1.9765625 7.421875 C2.00207817 10.22859878 1.44843844 11.63384866 0 14 C-0.19627391 12.41773035 -0.38165538 10.83410729 -0.5625 9.25 C-0.66691406 8.36828125 -0.77132812 7.4865625 -0.87890625 6.578125 C-0.99456676 4.11567549 -0.73638695 2.33461936 0 0 Z " fill="#787878" transform="translate(230,246)"/>
<path d="M0 0 C0.99 0.33 1.98 0.66 3 1 C3.125 6.75 3.125 6.75 2 9 C1.34 9 0.68 9 0 9 C0 6.03 0 3.06 0 0 Z " fill="#F6E0CA" transform="translate(106,143)"/>
<path d="M0 0 C-1.01176437 3.40320742 -1.64843582 4.75725331 -4.625 6.8125 C-5.40875 7.204375 -6.1925 7.59625 -7 8 C-6.34 6.68 -5.68 5.36 -5 4 C-4.34 4 -3.68 4 -3 4 C-3 3.34 -3 2.68 -3 2 C-4.32 2.33 -5.64 2.66 -7 3 C-6.67 2.34 -6.34 1.68 -6 1 C-3.911361 0.32624548 -2.19636905 0 0 0 Z " fill="#D88C6F" transform="translate(114,106)"/>
<path d="M0 0 C1.65 0 3.3 0 5 0 C4.67 1.65 4.34 3.3 4 5 C2.68 4.67 1.36 4.34 0 4 C0 2.68 0 1.36 0 0 Z " fill="#4E4E4E" transform="translate(73,79)"/>
<path d="M0 0 C-0.33 0.99 -0.66 1.98 -1 3 C-4.3 3.33 -7.6 3.66 -11 4 C-11 3.34 -11 2.68 -11 2 C-9.5422647 1.664061 -8.08378894 1.33133376 -6.625 1 C-5.40683594 0.7215625 -5.40683594 0.7215625 -4.1640625 0.4375 C-2 0 -2 0 0 0 Z " fill="#5E3B30" transform="translate(103,75)"/>
<path d="M0 0 C0.598125 0.226875 1.19625 0.45375 1.8125 0.6875 C1.19375 1.285625 0.575 1.88375 -0.0625 2.5 C-2.32426954 4.69561144 -2.32426954 4.69561144 -4.1875 7.6875 C-4.875 5.375 -4.875 5.375 -5.1875 2.6875 C-3.60587179 0.1901923 -2.97595617 -0.4251366 0 0 Z " fill="#342A23" transform="translate(241.1875,264.3125)"/>
<path d="M0 0 C1.33855056 0.78281305 2.67073644 1.57651877 4 2.375 C5.11375 3.03628906 5.11375 3.03628906 6.25 3.7109375 C6.8275 4.13632813 7.405 4.56171875 8 5 C8 5.66 8 6.32 8 7 C4.59687262 5.94124926 1.98646769 4.99097846 -1 3 C-0.67 2.01 -0.34 1.02 0 0 Z " fill="#DFCCB7" transform="translate(118,173)"/>
<path d="M0 0 C3.79588866 0.54226981 5.47211993 2.20127563 8 5 C7.67 5.99 7.34 6.98 7 8 C6.67 7.34 6.34 6.68 6 6 C4.68 6.33 3.36 6.66 2 7 C2.04125 6.21625 2.0825 5.4325 2.125 4.625 C2.28728734 1.83883881 2.28728734 1.83883881 0 0 Z " fill="#3F1E11" transform="translate(91,103)"/>
<path d="M0 0 C2.78637633 4.1795645 1.79562512 6.14668677 1 11 C0.34 11 -0.32 11 -1 11 C-0.67 7.37 -0.34 3.74 0 0 Z " fill="#626262" transform="translate(28,269)"/>
<path d="M0 0 C0 3.20395416 -0.74335022 5.09399739 -2 8 C-3.65 8 -5.3 8 -7 8 C-6.02133662 6.85373678 -5.04205413 5.70800212 -4.0625 4.5625 C-3.51722656 3.92441406 -2.97195312 3.28632813 -2.41015625 2.62890625 C-1.63204305 1.73008851 -0.84063472 0.84063472 0 0 Z " fill="#DEC5AD" transform="translate(151,170)"/>
<path d="M0 0 C2.0625 0.4375 2.0625 0.4375 4 1 C4 1.66 4 2.32 4 3 C3.01 3.495 3.01 3.495 2 4 C1.53476937 5.89533342 1.53476937 5.89533342 1.375 8.0625 C1.25125 9.361875 1.1275 10.66125 1 12 C0.67 12 0.34 12 0 12 C-0.19401633 10.18818595 -0.38004375 8.37551468 -0.5625 6.5625 C-0.66691406 5.55316406 -0.77132812 4.54382813 -0.87890625 3.50390625 C-0.91886719 2.67761719 -0.95882812 1.85132812 -1 1 C-0.67 0.67 -0.34 0.34 0 0 Z " fill="#D1BDA8" transform="translate(107,122)"/>
<path d="M0 0 C6.625 -0.25 6.625 -0.25 10 2 C10 2.66 10 3.32 10 4 C6.7 3.34 3.4 2.68 0 2 C0 1.34 0 0.68 0 0 Z " fill="#54422D" transform="translate(139,110)"/>
<path d="M0 0 C0.99 1.32 1.98 2.64 3 4 C3.99 4.66 4.98 5.32 6 6 C4.68 6 3.36 6 2 6 C1.34 7.32 0.68 8.64 0 10 C0 6.7 0 3.4 0 0 Z " fill="#CF866D" transform="translate(88,97)"/>
<path d="M0 0 C-0.33 0.99 -0.66 1.98 -1 3 C-3.375 3.1875 -3.375 3.1875 -6 3 C-6.66 2.01 -7.32 1.02 -8 0 C-4.71023192 -1.09658936 -3.28696233 -0.79953138 0 0 Z " fill="#FAE1CA" transform="translate(310,259)"/>
<path d="M0 0 C0.99 0.33 1.98 0.66 3 1 C2.34 2.98 1.68 4.96 1 7 C0.34 7 -0.32 7 -1 7 C-1.04254356 5.00045254 -1.04080783 2.99958364 -1 1 C-0.67 0.67 -0.34 0.34 0 0 Z " fill="#736555" transform="translate(99,127)"/>
<path d="M0 0 C0.66 0.33 1.32 0.66 2 1 C2 3.31 2 5.62 2 8 C1.67 7.01 1.34 6.02 1 5 C0.01 5.33 -0.98 5.66 -2 6 C-1.125 1.125 -1.125 1.125 0 0 Z " fill="#D6C0AE" transform="translate(104,124)"/>
<path d="M0 0 C2.22825644 2.22825644 2.69239369 3.65761628 3.625 6.625 C3.88539063 7.44226563 4.14578125 8.25953125 4.4140625 9.1015625 C4.60742188 9.72804688 4.80078125 10.35453125 5 11 C1.51668565 7.98112756 0.20842856 5.43090471 -1 1 C-0.67 0.67 -0.34 0.34 0 0 Z " fill="#533528" transform="translate(170,89)"/>
<path d="M0 0 C0 0.66 0 1.32 0 2 C-6.625 3.25 -6.625 3.25 -10 1 C-6.59437148 0.22157062 -3.49234244 -0.09978121 0 0 Z " fill="#1C100B" transform="translate(313,262)"/>
<path d="M0 0 C1.65 1.32 3.3 2.64 5 4 C4.67 4.66 4.34 5.32 4 6 C3.34 6 2.68 6 2 6 C1.67 6.66 1.34 7.32 1 8 C0.67 5.36 0.34 2.72 0 0 Z " fill="#ECD3C0" transform="translate(86,154)"/>
<path d="M0 0 C0.66 0 1.32 0 2 0 C2.25 3.3125 2.25 3.3125 2 7 C0 8.9375 0 8.9375 -2 10 C-2.66 9.67 -3.32 9.34 -4 9 C-4 8.34 -4 7.68 -4 7 C-2.68 6.67 -1.36 6.34 0 6 C0 4.02 0 2.04 0 0 Z " fill="#DFC8B4" transform="translate(146,129)"/>
<path d="M0 0 C0.66 0 1.32 0 2 0 C1.67 1.98 1.34 3.96 1 6 C-0.65 6 -2.3 6 -4 6 C-4.33 5.01 -4.66 4.02 -5 3 C-4.01 3 -3.02 3 -2 3 C-1.67 3.33 -1.34 3.66 -1 4 C-0.67 2.68 -0.34 1.36 0 0 Z " fill="#FBE3CA" transform="translate(145,103)"/>
<path d="M0 0 C1.9375 0.75 1.9375 0.75 4 2 C4.75 4.125 4.75 4.125 5 6 C4.01 6.33 3.02 6.66 2 7 C0.5393715 4.35261084 0 3.10551666 0 0 Z " fill="#E8CCB7" transform="translate(142,97)"/>
<path d="M0 0 C0.99 0.33 1.98 0.66 3 1 C2.67 1.66 2.34 2.32 2 3 C1.01 3 0.02 3 -1 3 C-1.66 4.32 -2.32 5.64 -3 7 C-3.66 6.67 -4.32 6.34 -5 6 C-3.86525052 2.59575156 -3.03188696 1.78346291 0 0 Z " fill="#DF8C6C" transform="translate(104,75)"/>
<path d="M0 0 C1.04187157 3.12561472 1.23843794 4.04680182 0 7 C-2.0625 8.25 -2.0625 8.25 -4 9 C-2.94124926 5.59687262 -1.99097846 2.98646769 0 0 Z " fill="#D48867" transform="translate(144,79)"/>
<path d="M0 0 C0.66 0.99 1.32 1.98 2 3 C1.67 3.66 1.34 4.32 1 5 C0.34 5 -0.32 5 -1 5 C-1.33 5.66 -1.66 6.32 -2 7 C-2 6.01 -2 5.02 -2 4 C-2.66 3.67 -3.32 3.34 -4 3 C-2.68 2.01 -1.36 1.02 0 0 Z " fill="#DA8865" transform="translate(110,71)"/>
<path d="M0 0 C0.66 0.66 1.32 1.32 2 2 C-0.97 4.475 -0.97 4.475 -4 7 C-4 4 -4 4 -2 1.8125 C-1.34 1.214375 -0.68 0.61625 0 0 Z " fill="#545454" transform="translate(241,313)"/>
<path d="M0 0 C0.66 0.33 1.32 0.66 2 1 C1.34 3.64 0.68 6.28 0 9 C-1.125 7.3125 -1.125 7.3125 -2 5 C-1.125 2.25 -1.125 2.25 0 0 Z " fill="#646464" transform="translate(110,220)"/>
<path d="M0 0 C0.66 0.66 1.32 1.32 2 2 C-0.31 3.65 -2.62 5.3 -5 7 C-5.66 6.34 -6.32 5.68 -7 5 C-6.030625 4.360625 -5.06125 3.72125 -4.0625 3.0625 C-1.23963731 1.3034741 -1.23963731 1.3034741 0 0 Z " fill="#504235" transform="translate(149,191)"/>
</svg>
